<?xml version='1.0' encoding='utf-8'?>
<svg xmlns:xlink="http://www.w3.org/1999/xlink" xmlns="http://www.w3.org/2000/svg" width="92.443mm" height="236.02mm" version="1.1" viewBox="0 0 92.443 236.02"><defs><linearGradient id="o"><stop stop-color="#ba8c5b" stop-opacity=".99338" offset="0"/><stop stop-color="#cba883" stop-opacity=".99216" offset=".083333"/><stop stop-color="#e0ccb5" stop-opacity=".99608" offset=".52632"/><stop stop-color="#c7a179" stop-opacity=".99216" offset="1"/><stop stop-color="#ba8c5b" stop-opacity=".99216" offset="1"/></linearGradient><linearGradient id="l"><stop stop-color="#5c3f21" offset="0"/><stop stop-color="#835b2f" stop-opacity=".99608" offset=".32371"/><stop stop-color="#865e31" stop-opacity=".99216" offset=".47423"/><stop stop-color="#835b2f" stop-opacity=".99216" offset=".63505"/><stop stop-color="#5c4021" stop-opacity=".99396" offset=".99794"/></linearGradient><linearGradient id="e"><stop stop-color="#e3ccb2" offset="0"/><stop stop-color="#a8743d" stop-opacity=".99094" offset="1"/></linearGradient><linearGradient id="z"><stop stop-color="#bcd35f" offset=".098684"/><stop stop-color="#bcd35f" stop-opacity=".55298" offset="1"/></linearGradient><linearGradient id="aa"><stop stop-color="#bcd35f" stop-opacity=".55298" offset="0"/><stop stop-color="#bcd35f" offset=".90132"/></linearGradient><linearGradient id="bk"><stop stop-color="#bcd35f" stop-opacity=".55298" offset="0"/><stop stop-color="#bcd35f" offset=".46053"/></linearGradient><linearGradient id="bl"><stop stop-color="#bcd35f" offset="0"/><stop stop-color="#bcd35f" stop-opacity=".55298" offset="1"/></linearGradient><linearGradient id="j"><stop stop-color="#bcd35f" stop-opacity=".55298" offset="0"/><stop stop-color="#bcd35f" offset="1"/></linearGradient><linearGradient id="f" x1="172.87" x2="232.74" y1="165.76" y2="59.868" gradientTransform="translate(-5.9868 11.225)" gradientUnits="userSpaceOnUse" xlink:href="#j"/><linearGradient id="k" x1="63.61" x2="67.352" y1="59.681" y2="123.29" gradientUnits="userSpaceOnUse" xlink:href="#bl"/><linearGradient id="p" x1="61.383" x2="141.82" y1="183.09" y2="115.36" gradientUnits="userSpaceOnUse" xlink:href="#j"/><linearGradient id="t" x1="93.935" x2="137.75" y1="170.52" y2="79.222" gradientTransform="translate(-2.2451 1.1225)" gradientUnits="userSpaceOnUse" xlink:href="#j"/><linearGradient id="n" x1="89.428" x2="125.35" y1="177.36" y2="36.295" gradientUnits="userSpaceOnUse" xlink:href="#j"/><linearGradient id="bi" x1="93.935" x2="137.75" y1="170.52" y2="79.222" gradientTransform="matrix(.39288 .040908 -.040908 .39288 86.827 89.241)" gradientUnits="userSpaceOnUse" xlink:href="#j"/><linearGradient id="s" x1="85.687" x2="100.65" y1="178.11" y2="74.835" gradientUnits="userSpaceOnUse" xlink:href="#j"/><linearGradient id="r" x1="107.82" x2="111.39" y1="75.935" y2="138.51" gradientUnits="userSpaceOnUse" xlink:href="#z"/><linearGradient id="m" x1="92.642" x2="86.393" y1="158.46" y2="74.348" gradientUnits="userSpaceOnUse" xlink:href="#aa"/><linearGradient id="q" x1="83.067" x2="82.319" y1="66.978" y2="175.49" gradientUnits="userSpaceOnUse" xlink:href="#bk"/><linearGradient id="bh" x1="34.91" x2="140.44" y1="153.5" y2="153.54" gradientTransform="matrix(.55485 0 0 .55485 44.338 76.829)" gradientUnits="userSpaceOnUse"><stop stop-color="#953c00" offset="0"/><stop stop-color="#c96f33" stop-opacity=".98824" offset=".48026"/><stop stop-color="#953c00" offset="1"/></linearGradient><linearGradient id="be" x1="85.352" x2="85.369" y1="122.16" y2="118.59" gradientTransform="matrix(.54157 0 0 -.55485 46.668 206.67)" gradientUnits="userSpaceOnUse"><stop stop-color="#793100" offset="0"/><stop stop-color="#793100" stop-opacity="0" offset="1"/></linearGradient><linearGradient id="az" x1="63.875" x2="65.767" y1="142.65" y2="143.45" gradientTransform="rotate(-60.004 142.13 118.02)" gradientUnits="userSpaceOnUse" xlink:href="#e"/><linearGradient id="ay" x1="66.148" x2="68.021" y1="142.91" y2="143.83" gradientTransform="matrix(1.0046 -.8674 .92433 .94277 -60.573 93.187)" gradientUnits="userSpaceOnUse" xlink:href="#e"/><linearGradient id="ax" x1="63.659" x2="65.719" y1="141.79" y2="143.29" gradientTransform="matrix(1.0246 .23806 -.20575 1.1994 98.221 11.342)" gradientUnits="userSpaceOnUse" xlink:href="#e"/><linearGradient id="aw" x1="64.622" x2="66.471" y1="141.87" y2="142.7" gradientTransform="matrix(.59576 -1.4793 1.1929 .49909 -105.32 198.85)" gradientUnits="userSpaceOnUse" xlink:href="#e"/><linearGradient id="av" x1="88.99" x2="93.988" y1="205.26" y2="205.26" gradientTransform="rotate(-7.0254 93.139 190.66)" gradientUnits="userSpaceOnUse" xlink:href="#e"/><linearGradient id="au" x1="88.99" x2="93.988" y1="205.26" y2="205.26" gradientTransform="matrix(-1 0 0 1 187.56 0)" gradientUnits="userSpaceOnUse" xlink:href="#e"/><linearGradient id="at" x1="90.674" x2="96.514" y1="205.45" y2="205.17" gradientTransform="matrix(-1 0 0 1 185.41 .28063)" gradientUnits="userSpaceOnUse" xlink:href="#e"/><linearGradient id="as" x1="89.645" x2="95.578" y1="205.26" y2="204.98" gradientTransform="translate(1.3845 .93544)" gradientUnits="userSpaceOnUse" xlink:href="#e"/><linearGradient id="ar" x1="91.796" x2="95.859" y1="205.34" y2="205.26" gradientTransform="matrix(1 0 0 1.1122 1.0103 -21.307)" gradientUnits="userSpaceOnUse" xlink:href="#e"/><linearGradient id="aq" x1="91.796" x2="95.859" y1="205.34" y2="205.26" gradientTransform="matrix(-.99867 .051464 .057239 1.1108 176.85 -25.321)" gradientUnits="userSpaceOnUse" xlink:href="#e"/><linearGradient id="ap" x1="88.99" x2="93.988" y1="205.26" y2="205.26" gradientTransform="matrix(-.99029 -.13899 -.13899 .99029 211.78 15.433)" gradientUnits="userSpaceOnUse" xlink:href="#e"/><linearGradient id="ao" x1="91.796" x2="95.859" y1="205.34" y2="205.26" gradientTransform="matrix(-1 0 0 1.1122 186.19 -19.342)" gradientUnits="userSpaceOnUse" xlink:href="#e"/><linearGradient id="an" x1="88.99" x2="93.988" y1="205.26" y2="205.26" gradientTransform="matrix(-.99249 -.12231 -.12231 .99249 206.16 12.823)" gradientUnits="userSpaceOnUse" xlink:href="#e"/><linearGradient id="am" x1="92.796" x2="92.89" y1="183.35" y2="189.43" gradientTransform="translate(22.136 25.864)" gradientUnits="userSpaceOnUse" xlink:href="#l"/><linearGradient id="i" x1="65.545" x2="67.541" y1="142.55" y2="143.34" gradientTransform="matrix(-.081467 -.6979 .19102 -.29764 81.932 279.87)" gradientUnits="userSpaceOnUse" xlink:href="#e"/><linearGradient id="h" x1="65.545" x2="67.541" y1="142.55" y2="143.34" gradientTransform="matrix(-.081467 -.6979 .19102 -.29764 81.909 278.8)" gradientUnits="userSpaceOnUse" xlink:href="#e"/><linearGradient id="g" x1="65.545" x2="67.541" y1="142.55" y2="143.34" gradientTransform="matrix(-.081467 -.6979 .19102 -.29764 81.885 277.53)" gradientUnits="userSpaceOnUse" xlink:href="#e"/><linearGradient id="ak" x1="65.164" x2="67.541" y1="142.49" y2="143.34" gradientTransform="rotate(246.9 110.38 159.37)" gradientUnits="userSpaceOnUse" xlink:href="#e"/><linearGradient id="aj" x1="65.164" x2="67.541" y1="142.49" y2="143.34" gradientTransform="matrix(.39229 -.91984 -.91984 -.39229 222.16 323.23)" gradientUnits="userSpaceOnUse" xlink:href="#e"/><linearGradient id="ai" x1="64.106" x2="66.297" y1="141.19" y2="142.28" gradientTransform="matrix(-.59576 -1.4793 -1.1929 .49909 334.7 198.1)" gradientUnits="userSpaceOnUse" xlink:href="#e"/><linearGradient id="ah" x1="63.765" x2="66.611" y1="142.31" y2="143.07" gradientTransform="matrix(-.49995 -.86606 -.86606 .49995 262.46 181.36)" gradientUnits="userSpaceOnUse"><stop stop-color="#e3ccb2" offset="0"/><stop stop-color="#a8743d" stop-opacity=".99094" offset="1"/></linearGradient><radialGradient id="y" cx="161.76" cy="-94.611" r="5.0573" gradientTransform="matrix(1.1672 -.020723 .010446 1.0842 -179.18 10.803)" gradientUnits="userSpaceOnUse"><stop stop-color="#7b562c" stop-opacity=".99608" offset=".0082474"/><stop stop-color="#674825" stop-opacity=".99608" offset=".47629"/><stop stop-color="#7d572d" stop-opacity=".99216" offset=".90309"/><stop stop-color="#694926" stop-opacity=".99094" offset="1"/></radialGradient><linearGradient id="ag" x1="92.796" x2="92.89" y1="183.35" y2="189.43" gradientTransform="matrix(.66119 .11004 -.16417 .98643 63.587 -37.116)" gradientUnits="userSpaceOnUse" xlink:href="#l"/><linearGradient id="ae" x1="66.148" x2="68.078" y1="142.91" y2="143.78" gradientTransform="matrix(-1.0943 -.70717 -.81457 .97823 279.43 79.732)" gradientUnits="userSpaceOnUse" xlink:href="#e"/><linearGradient id="ad" x1="65.045" x2="67.239" y1="141.99" y2="143.13" gradientTransform="matrix(-1.0246 .23806 .20575 1.1994 132.13 10.781)" gradientUnits="userSpaceOnUse" xlink:href="#e"/><linearGradient id="al" x1="71.567" x2="72.834" y1="130.22" y2="129.02" gradientTransform="rotate(246.9 110.21 160.02)" gradientUnits="userSpaceOnUse" xlink:href="#e"/><linearGradient id="bj" x1="71.567" x2="72.834" y1="130.22" y2="129.02" gradientTransform="matrix(.39229 -.91984 -.91984 -.39229 222.91 324.24)" gradientUnits="userSpaceOnUse" xlink:href="#e"/><linearGradient id="bg" x1="71.567" x2="72.834" y1="130.22" y2="129.02" gradientTransform="matrix(.39229 -.91984 -.91984 -.39229 235.53 306.53)" gradientUnits="userSpaceOnUse" xlink:href="#e"/><linearGradient id="bf" x1="71.567" x2="72.993" y1="130.22" y2="129.26" gradientTransform="rotate(68.789 70.659 208.03)" gradientUnits="userSpaceOnUse" xlink:href="#e"/><linearGradient id="bd" x1="71.959" x2="73.38" y1="130.05" y2="129.01" gradientTransform="matrix(-.3618 .93226 .93226 .3618 -8.9284 66.926)" gradientUnits="userSpaceOnUse" xlink:href="#e"/><linearGradient id="bc" x1="71.684" x2="72.834" y1="130.2" y2="129.02" gradientTransform="rotate(246.9 98.793 155.25)" gradientUnits="userSpaceOnUse" xlink:href="#e"/><linearGradient id="ac" x1="65.164" x2="67.541" y1="142.49" y2="143.34" gradientTransform="rotate(246.9 111.3 160.2)" gradientUnits="userSpaceOnUse" xlink:href="#e"/><linearGradient id="ab" x1="65.164" x2="67.541" y1="142.49" y2="143.34" gradientTransform="matrix(.39229 -.91984 -.91984 -.39229 221.93 325.94)" gradientUnits="userSpaceOnUse" xlink:href="#e"/><linearGradient id="bb" x1="92.796" x2="92.89" y1="183.35" y2="189.43" gradientTransform="translate(2.14 -163.36)" gradientUnits="userSpaceOnUse" xlink:href="#l"/><linearGradient id="ba" x1="65.659" x2="67.541" y1="142.6" y2="143.34" gradientTransform="matrix(-.081467 -.6979 .19102 -.29764 81.932 279.87)" gradientUnits="userSpaceOnUse" xlink:href="#e"/><linearGradient id="af" x1="92.796" x2="92.89" y1="183.35" y2="189.43" gradientTransform="matrix(-.66119 .11004 .16417 .98643 165.54 -36.742)" gradientUnits="userSpaceOnUse" xlink:href="#l"/><linearGradient id="x" x1="65.659" x2="67.541" y1="142.6" y2="143.34" gradientTransform="matrix(.6979 -.081467 .29764 .19102 24.267 -8.592)" gradientUnits="userSpaceOnUse" xlink:href="#e"/><linearGradient id="w" x1="65.545" x2="67.541" y1="142.55" y2="143.34" gradientTransform="matrix(.6979 -.081467 .29764 .19102 25.343 -8.592)" gradientUnits="userSpaceOnUse" xlink:href="#e"/><linearGradient id="v" x1="65.545" x2="67.541" y1="142.55" y2="143.34" gradientTransform="matrix(.6979 -.081467 .29764 .19102 26.407 -8.592)" gradientUnits="userSpaceOnUse" xlink:href="#e"/><linearGradient id="u" x1="65.545" x2="67.541" y1="142.55" y2="143.34" gradientTransform="matrix(.6979 -.081467 .29764 .19102 27.531 -8.592)" gradientUnits="userSpaceOnUse" xlink:href="#e"/><linearGradient id="d" x1="42.614" x2="43.875" y1="73.771" y2="72.167" gradientUnits="userSpaceOnUse" xlink:href="#o"/><linearGradient id="c" x1="42.614" x2="43.875" y1="73.771" y2="72.167" gradientTransform="translate(-.20193 -2.4166)" gradientUnits="userSpaceOnUse" xlink:href="#o"/><linearGradient id="b" x1="42.614" x2="43.875" y1="73.771" y2="72.167" gradientTransform="translate(-.51612 -5.0717)" gradientUnits="userSpaceOnUse" xlink:href="#o"/><linearGradient id="a" x1="42.614" x2="43.875" y1="73.771" y2="72.167" gradientTransform="translate(-.77336 -7.6091)" gradientUnits="userSpaceOnUse" xlink:href="#o"/></defs><g transform="translate(-62.672 -29.353)"><g transform="matrix(-.85449 -.047738 -.060406 1.0812 142.54 78.813)" fill-opacity=".99608" stroke-width="1.0387"><g transform="translate(-1.3229 1.8521)"><path d="m41.56 70.421 3.39 2.5585c0.65586 0.48594 0.51101 2.3244 0.52917 2.8986 0.0026 0.08264-3.423-2.5301-3.423-2.5301-0.67702-0.5226-0.51467-1.9925-0.49609-2.927z" fill="url(#d)"/><path d="m41.358 68.004 3.39 2.5585c0.65586 0.48594 0.51101 2.3244 0.52917 2.8986 0.0026 0.08264-3.423-2.5301-3.423-2.5301-0.67702-0.5226-0.51467-1.9925-0.49609-2.927z" fill="url(#c)"/><path d="m41.044 65.349 3.39 2.5585c0.65586 0.48594 0.51101 2.3244 0.52917 2.8986 0.0026 0.08264-3.423-2.5301-3.423-2.5301-0.67702-0.5226-0.51467-1.9925-0.49609-2.927z" fill="url(#b)"/><path d="m40.787 62.811 3.39 2.5585c0.65586 0.48594 0.51101 2.3244 0.52917 2.8986 0.0026 0.08264-3.423-2.5301-3.423-2.5301-0.67702-0.5226-0.51467-1.9925-0.49609-2.927z" fill="url(#a)"/><g transform="translate(-.94961 -9.9381)"><path d="m41.56 70.421 3.39 2.5585c0.65586 0.48594 0.51101 2.3244 0.52917 2.8986 0.0026 0.08264-3.423-2.5301-3.423-2.5301-0.67702-0.5226-0.51467-1.9925-0.49609-2.927z" fill="url(#d)"/><path d="m41.358 68.004 3.39 2.5585c0.65586 0.48594 0.51101 2.3244 0.52917 2.8986 0.0026 0.08264-3.423-2.5301-3.423-2.5301-0.67702-0.5226-0.51467-1.9925-0.49609-2.927z" fill="url(#c)"/><path d="m41.044 65.349 3.39 2.5585c0.65586 0.48594 0.51101 2.3244 0.52917 2.8986 0.0026 0.08264-3.423-2.5301-3.423-2.5301-0.67702-0.5226-0.51467-1.9925-0.49609-2.927z" fill="url(#b)"/><path d="m40.787 62.811 3.39 2.5585c0.65586 0.48594 0.51101 2.3244 0.52917 2.8986 0.0026 0.08264-3.423-2.5301-3.423-2.5301-0.67702-0.5226-0.51467-1.9925-0.49609-2.927z" fill="url(#a)"/></g><g transform="translate(-2.0195 -20.167)"><path d="m41.56 70.421 3.39 2.5585c0.65586 0.48594 0.51101 2.3244 0.52917 2.8986 0.0026 0.08264-3.423-2.5301-3.423-2.5301-0.67702-0.5226-0.51467-1.9925-0.49609-2.927z" fill="url(#d)"/><path d="m41.358 68.004 3.39 2.5585c0.65586 0.48594 0.51101 2.3244 0.52917 2.8986 0.0026 0.08264-3.423-2.5301-3.423-2.5301-0.67702-0.5226-0.51467-1.9925-0.49609-2.927z" fill="url(#c)"/><path d="m41.044 65.349 3.39 2.5585c0.65586 0.48594 0.51101 2.3244 0.52917 2.8986 0.0026 0.08264-3.423-2.5301-3.423-2.5301-0.67702-0.5226-0.51467-1.9925-0.49609-2.927z" fill="url(#b)"/><path d="m40.787 62.811 3.39 2.5585c0.65586 0.48594 0.51101 2.3244 0.52917 2.8986 0.0026 0.08264-3.423-2.5301-3.423-2.5301-0.67702-0.5226-0.51467-1.9925-0.49609-2.927z" fill="url(#a)"/><g transform="translate(-.94961 -9.9381)"><path d="m41.56 70.421 3.39 2.5585c0.65586 0.48594 0.51101 2.3244 0.52917 2.8986 0.0026 0.08264-3.423-2.5301-3.423-2.5301-0.67702-0.5226-0.51467-1.9925-0.49609-2.927z" fill="url(#d)"/><path d="m41.358 68.004 3.39 2.5585c0.65586 0.48594 0.51101 2.3244 0.52917 2.8986 0.0026 0.08264-3.423-2.5301-3.423-2.5301-0.67702-0.5226-0.51467-1.9925-0.49609-2.927z" fill="url(#c)"/><path d="m41.044 65.349 3.39 2.5585c0.65586 0.48594 0.51101 2.3244 0.52917 2.8986 0.0026 0.08264-3.423-2.5301-3.423-2.5301-0.67702-0.5226-0.51467-1.9925-0.49609-2.927z" fill="url(#b)"/><path d="m40.787 62.811 3.39 2.5585c0.65586 0.48594 0.51101 2.3244 0.52917 2.8986 0.0026 0.08264-3.423-2.5301-3.423-2.5301-0.67702-0.5226-0.51467-1.9925-0.49609-2.927z" fill="url(#a)"/></g></g></g><g transform="translate(-5.3336 -38.43)"><path d="m41.56 70.421 3.39 2.5585c0.65586 0.48594 0.51101 2.3244 0.52917 2.8986 0.0026 0.08264-3.423-2.5301-3.423-2.5301-0.67702-0.5226-0.51467-1.9925-0.49609-2.927z" fill="url(#d)"/><path d="m41.358 68.004 3.39 2.5585c0.65586 0.48594 0.51101 2.3244 0.52917 2.8986 0.0026 0.08264-3.423-2.5301-3.423-2.5301-0.67702-0.5226-0.51467-1.9925-0.49609-2.927z" fill="url(#c)"/><path d="m41.044 65.349 3.39 2.5585c0.65586 0.48594 0.51101 2.3244 0.52917 2.8986 0.0026 0.08264-3.423-2.5301-3.423-2.5301-0.67702-0.5226-0.51467-1.9925-0.49609-2.927z" fill="url(#b)"/><path d="m40.787 62.811 3.39 2.5585c0.65586 0.48594 0.51101 2.3244 0.52917 2.8986 0.0026 0.08264-3.423-2.5301-3.423-2.5301-0.67702-0.5226-0.51467-1.9925-0.49609-2.927z" fill="url(#a)"/><g transform="translate(-.94961 -9.9381)"><path d="m41.56 70.421 3.39 2.5585c0.65586 0.48594 0.51101 2.3244 0.52917 2.8986 0.0026 0.08264-3.423-2.5301-3.423-2.5301-0.67702-0.5226-0.51467-1.9925-0.49609-2.927z" fill="url(#d)"/><path d="m41.358 68.004 3.39 2.5585c0.65586 0.48594 0.51101 2.3244 0.52917 2.8986 0.0026 0.08264-3.423-2.5301-3.423-2.5301-0.67702-0.5226-0.51467-1.9925-0.49609-2.927z" fill="url(#c)"/><path d="m41.044 65.349 3.39 2.5585c0.65586 0.48594 0.51101 2.3244 0.52917 2.8986 0.0026 0.08264-3.423-2.5301-3.423-2.5301-0.67702-0.5226-0.51467-1.9925-0.49609-2.927z" fill="url(#b)"/><path d="m40.787 62.811 3.39 2.5585c0.65586 0.48594 0.51101 2.3244 0.52917 2.8986 0.0026 0.08264-3.423-2.5301-3.423-2.5301-0.67702-0.5226-0.51467-1.9925-0.49609-2.927z" fill="url(#a)"/></g><g transform="translate(-2.0195 -20.167)"><path d="m41.56 70.421 3.39 2.5585c0.65586 0.48594 0.51101 2.3244 0.52917 2.8986 0.0026 0.08264-3.423-2.5301-3.423-2.5301-0.67702-0.5226-0.51467-1.9925-0.49609-2.927z" fill="url(#d)"/><path d="m41.358 68.004 3.39 2.5585c0.65586 0.48594 0.51101 2.3244 0.52917 2.8986 0.0026 0.08264-3.423-2.5301-3.423-2.5301-0.67702-0.5226-0.51467-1.9925-0.49609-2.927z" fill="url(#c)"/><path d="m41.044 65.349 3.39 2.5585c0.65586 0.48594 0.51101 2.3244 0.52917 2.8986 0.0026 0.08264-3.423-2.5301-3.423-2.5301-0.67702-0.5226-0.51467-1.9925-0.49609-2.927z" fill="url(#b)"/><path d="m40.787 62.811 3.39 2.5585c0.65586 0.48594 0.51101 2.3244 0.52917 2.8986 0.0026 0.08264-3.423-2.5301-3.423-2.5301-0.67702-0.5226-0.51467-1.9925-0.49609-2.927z" fill="url(#a)"/><g transform="translate(-.94961 -9.9381)"><path d="m41.56 70.421 3.39 2.5585c0.65586 0.48594 0.51101 2.3244 0.52917 2.8986 0.0026 0.08264-3.423-2.5301-3.423-2.5301-0.67702-0.5226-0.51467-1.9925-0.49609-2.927z" fill="url(#d)"/><path d="m41.358 68.004 3.39 2.5585c0.65586 0.48594 0.51101 2.3244 0.52917 2.8986 0.0026 0.08264-3.423-2.5301-3.423-2.5301-0.67702-0.5226-0.51467-1.9925-0.49609-2.927z" fill="url(#c)"/><path d="m41.044 65.349 3.39 2.5585c0.65586 0.48594 0.51101 2.3244 0.52917 2.8986 0.0026 0.08264-3.423-2.5301-3.423-2.5301-0.67702-0.5226-0.51467-1.9925-0.49609-2.927z" fill="url(#b)"/><path d="m40.787 62.811 3.39 2.5585c0.65586 0.48594 0.51101 2.3244 0.52917 2.8986 0.0026 0.08264-3.423-2.5301-3.423-2.5301-0.67702-0.5226-0.51467-1.9925-0.49609-2.927z" fill="url(#a)"/></g></g></g><g transform="translate(-9.4124 -78.827)"><path d="m41.56 70.421 3.39 2.5585c0.65586 0.48594 0.51101 2.3244 0.52917 2.8986 0.0026 0.08264-3.423-2.5301-3.423-2.5301-0.67702-0.5226-0.51467-1.9925-0.49609-2.927z" fill="url(#d)"/><path d="m41.358 68.004 3.39 2.5585c0.65586 0.48594 0.51101 2.3244 0.52917 2.8986 0.0026 0.08264-3.423-2.5301-3.423-2.5301-0.67702-0.5226-0.51467-1.9925-0.49609-2.927z" fill="url(#c)"/><path d="m41.044 65.349 3.39 2.5585c0.65586 0.48594 0.51101 2.3244 0.52917 2.8986 0.0026 0.08264-3.423-2.5301-3.423-2.5301-0.67702-0.5226-0.51467-1.9925-0.49609-2.927z" fill="url(#b)"/><path d="m40.787 62.811 3.39 2.5585c0.65586 0.48594 0.51101 2.3244 0.52917 2.8986 0.0026 0.08264-3.423-2.5301-3.423-2.5301-0.67702-0.5226-0.51467-1.9925-0.49609-2.927z" fill="url(#a)"/><g transform="translate(-.94961 -9.9381)"><path d="m41.56 70.421 3.39 2.5585c0.65586 0.48594 0.51101 2.3244 0.52917 2.8986 0.0026 0.08264-3.423-2.5301-3.423-2.5301-0.67702-0.5226-0.51467-1.9925-0.49609-2.927z" fill="url(#d)"/><path d="m41.358 68.004 3.39 2.5585c0.65586 0.48594 0.51101 2.3244 0.52917 2.8986 0.0026 0.08264-3.423-2.5301-3.423-2.5301-0.67702-0.5226-0.51467-1.9925-0.49609-2.927z" fill="url(#c)"/><path d="m41.044 65.349 3.39 2.5585c0.65586 0.48594 0.51101 2.3244 0.52917 2.8986 0.0026 0.08264-3.423-2.5301-3.423-2.5301-0.67702-0.5226-0.51467-1.9925-0.49609-2.927z" fill="url(#b)"/><path d="m40.787 62.811 3.39 2.5585c0.65586 0.48594 0.51101 2.3244 0.52917 2.8986 0.0026 0.08264-3.423-2.5301-3.423-2.5301-0.67702-0.5226-0.51467-1.9925-0.49609-2.927z" fill="url(#a)"/></g></g></g><g transform="matrix(.8557 -.014406 .018229 1.0828 89.049 77.44)" fill-opacity=".99608" stroke-width="1.0387"><g transform="translate(-1.3229 1.8521)"><path d="m41.56 70.421 3.39 2.5585c0.65586 0.48594 0.51101 2.3244 0.52917 2.8986 0.0026 0.08264-3.423-2.5301-3.423-2.5301-0.67702-0.5226-0.51467-1.9925-0.49609-2.927z" fill="url(#d)"/><path d="m41.358 68.004 3.39 2.5585c0.65586 0.48594 0.51101 2.3244 0.52917 2.8986 0.0026 0.08264-3.423-2.5301-3.423-2.5301-0.67702-0.5226-0.51467-1.9925-0.49609-2.927z" fill="url(#c)"/><path d="m41.044 65.349 3.39 2.5585c0.65586 0.48594 0.51101 2.3244 0.52917 2.8986 0.0026 0.08264-3.423-2.5301-3.423-2.5301-0.67702-0.5226-0.51467-1.9925-0.49609-2.927z" fill="url(#b)"/><path d="m40.787 62.811 3.39 2.5585c0.65586 0.48594 0.51101 2.3244 0.52917 2.8986 0.0026 0.08264-3.423-2.5301-3.423-2.5301-0.67702-0.5226-0.51467-1.9925-0.49609-2.927z" fill="url(#a)"/><g transform="translate(-.94961 -9.9381)"><path d="m41.56 70.421 3.39 2.5585c0.65586 0.48594 0.51101 2.3244 0.52917 2.8986 0.0026 0.08264-3.423-2.5301-3.423-2.5301-0.67702-0.5226-0.51467-1.9925-0.49609-2.927z" fill="url(#d)"/><path d="m41.358 68.004 3.39 2.5585c0.65586 0.48594 0.51101 2.3244 0.52917 2.8986 0.0026 0.08264-3.423-2.5301-3.423-2.5301-0.67702-0.5226-0.51467-1.9925-0.49609-2.927z" fill="url(#c)"/><path d="m41.044 65.349 3.39 2.5585c0.65586 0.48594 0.51101 2.3244 0.52917 2.8986 0.0026 0.08264-3.423-2.5301-3.423-2.5301-0.67702-0.5226-0.51467-1.9925-0.49609-2.927z" fill="url(#b)"/><path d="m40.787 62.811 3.39 2.5585c0.65586 0.48594 0.51101 2.3244 0.52917 2.8986 0.0026 0.08264-3.423-2.5301-3.423-2.5301-0.67702-0.5226-0.51467-1.9925-0.49609-2.927z" fill="url(#a)"/></g><g transform="translate(-2.0195 -20.167)"><path d="m41.56 70.421 3.39 2.5585c0.65586 0.48594 0.51101 2.3244 0.52917 2.8986 0.0026 0.08264-3.423-2.5301-3.423-2.5301-0.67702-0.5226-0.51467-1.9925-0.49609-2.927z" fill="url(#d)"/><path d="m41.358 68.004 3.39 2.5585c0.65586 0.48594 0.51101 2.3244 0.52917 2.8986 0.0026 0.08264-3.423-2.5301-3.423-2.5301-0.67702-0.5226-0.51467-1.9925-0.49609-2.927z" fill="url(#c)"/><path d="m41.044 65.349 3.39 2.5585c0.65586 0.48594 0.51101 2.3244 0.52917 2.8986 0.0026 0.08264-3.423-2.5301-3.423-2.5301-0.67702-0.5226-0.51467-1.9925-0.49609-2.927z" fill="url(#b)"/><path d="m40.787 62.811 3.39 2.5585c0.65586 0.48594 0.51101 2.3244 0.52917 2.8986 0.0026 0.08264-3.423-2.5301-3.423-2.5301-0.67702-0.5226-0.51467-1.9925-0.49609-2.927z" fill="url(#a)"/><g transform="translate(-.94961 -9.9381)"><path d="m41.56 70.421 3.39 2.5585c0.65586 0.48594 0.51101 2.3244 0.52917 2.8986 0.0026 0.08264-3.423-2.5301-3.423-2.5301-0.67702-0.5226-0.51467-1.9925-0.49609-2.927z" fill="url(#d)"/><path d="m41.358 68.004 3.39 2.5585c0.65586 0.48594 0.51101 2.3244 0.52917 2.8986 0.0026 0.08264-3.423-2.5301-3.423-2.5301-0.67702-0.5226-0.51467-1.9925-0.49609-2.927z" fill="url(#c)"/><path d="m41.044 65.349 3.39 2.5585c0.65586 0.48594 0.51101 2.3244 0.52917 2.8986 0.0026 0.08264-3.423-2.5301-3.423-2.5301-0.67702-0.5226-0.51467-1.9925-0.49609-2.927z" fill="url(#b)"/><path d="m40.787 62.811 3.39 2.5585c0.65586 0.48594 0.51101 2.3244 0.52917 2.8986 0.0026 0.08264-3.423-2.5301-3.423-2.5301-0.67702-0.5226-0.51467-1.9925-0.49609-2.927z" fill="url(#a)"/></g></g></g><g transform="translate(-5.3336 -38.43)"><path d="m41.56 70.421 3.39 2.5585c0.65586 0.48594 0.51101 2.3244 0.52917 2.8986 0.0026 0.08264-3.423-2.5301-3.423-2.5301-0.67702-0.5226-0.51467-1.9925-0.49609-2.927z" fill="url(#d)"/><path d="m41.358 68.004 3.39 2.5585c0.65586 0.48594 0.51101 2.3244 0.52917 2.8986 0.0026 0.08264-3.423-2.5301-3.423-2.5301-0.67702-0.5226-0.51467-1.9925-0.49609-2.927z" fill="url(#c)"/><path d="m41.044 65.349 3.39 2.5585c0.65586 0.48594 0.51101 2.3244 0.52917 2.8986 0.0026 0.08264-3.423-2.5301-3.423-2.5301-0.67702-0.5226-0.51467-1.9925-0.49609-2.927z" fill="url(#b)"/><path d="m40.787 62.811 3.39 2.5585c0.65586 0.48594 0.51101 2.3244 0.52917 2.8986 0.0026 0.08264-3.423-2.5301-3.423-2.5301-0.67702-0.5226-0.51467-1.9925-0.49609-2.927z" fill="url(#a)"/><g transform="translate(-.94961 -9.9381)"><path d="m41.56 70.421 3.39 2.5585c0.65586 0.48594 0.51101 2.3244 0.52917 2.8986 0.0026 0.08264-3.423-2.5301-3.423-2.5301-0.67702-0.5226-0.51467-1.9925-0.49609-2.927z" fill="url(#d)"/><path d="m41.358 68.004 3.39 2.5585c0.65586 0.48594 0.51101 2.3244 0.52917 2.8986 0.0026 0.08264-3.423-2.5301-3.423-2.5301-0.67702-0.5226-0.51467-1.9925-0.49609-2.927z" fill="url(#c)"/><path d="m41.044 65.349 3.39 2.5585c0.65586 0.48594 0.51101 2.3244 0.52917 2.8986 0.0026 0.08264-3.423-2.5301-3.423-2.5301-0.67702-0.5226-0.51467-1.9925-0.49609-2.927z" fill="url(#b)"/><path d="m40.787 62.811 3.39 2.5585c0.65586 0.48594 0.51101 2.3244 0.52917 2.8986 0.0026 0.08264-3.423-2.5301-3.423-2.5301-0.67702-0.5226-0.51467-1.9925-0.49609-2.927z" fill="url(#a)"/></g><g transform="translate(-2.0195 -20.167)"><path d="m41.56 70.421 3.39 2.5585c0.65586 0.48594 0.51101 2.3244 0.52917 2.8986 0.0026 0.08264-3.423-2.5301-3.423-2.5301-0.67702-0.5226-0.51467-1.9925-0.49609-2.927z" fill="url(#d)"/><path d="m41.358 68.004 3.39 2.5585c0.65586 0.48594 0.51101 2.3244 0.52917 2.8986 0.0026 0.08264-3.423-2.5301-3.423-2.5301-0.67702-0.5226-0.51467-1.9925-0.49609-2.927z" fill="url(#c)"/><path d="m41.044 65.349 3.39 2.5585c0.65586 0.48594 0.51101 2.3244 0.52917 2.8986 0.0026 0.08264-3.423-2.5301-3.423-2.5301-0.67702-0.5226-0.51467-1.9925-0.49609-2.927z" fill="url(#b)"/><path d="m40.787 62.811 3.39 2.5585c0.65586 0.48594 0.51101 2.3244 0.52917 2.8986 0.0026 0.08264-3.423-2.5301-3.423-2.5301-0.67702-0.5226-0.51467-1.9925-0.49609-2.927z" fill="url(#a)"/><g transform="translate(-.94961 -9.9381)"><path d="m41.56 70.421 3.39 2.5585c0.65586 0.48594 0.51101 2.3244 0.52917 2.8986 0.0026 0.08264-3.423-2.5301-3.423-2.5301-0.67702-0.5226-0.51467-1.9925-0.49609-2.927z" fill="url(#d)"/><path d="m41.358 68.004 3.39 2.5585c0.65586 0.48594 0.51101 2.3244 0.52917 2.8986 0.0026 0.08264-3.423-2.5301-3.423-2.5301-0.67702-0.5226-0.51467-1.9925-0.49609-2.927z" fill="url(#c)"/><path d="m41.044 65.349 3.39 2.5585c0.65586 0.48594 0.51101 2.3244 0.52917 2.8986 0.0026 0.08264-3.423-2.5301-3.423-2.5301-0.67702-0.5226-0.51467-1.9925-0.49609-2.927z" fill="url(#b)"/><path d="m40.787 62.811 3.39 2.5585c0.65586 0.48594 0.51101 2.3244 0.52917 2.8986 0.0026 0.08264-3.423-2.5301-3.423-2.5301-0.67702-0.5226-0.51467-1.9925-0.49609-2.927z" fill="url(#a)"/></g></g></g><g transform="translate(-9.4124 -78.827)"><path d="m41.56 70.421 3.39 2.5585c0.65586 0.48594 0.51101 2.3244 0.52917 2.8986 0.0026 0.08264-3.423-2.5301-3.423-2.5301-0.67702-0.5226-0.51467-1.9925-0.49609-2.927z" fill="url(#d)"/><path d="m41.358 68.004 3.39 2.5585c0.65586 0.48594 0.51101 2.3244 0.52917 2.8986 0.0026 0.08264-3.423-2.5301-3.423-2.5301-0.67702-0.5226-0.51467-1.9925-0.49609-2.927z" fill="url(#c)"/><path d="m41.044 65.349 3.39 2.5585c0.65586 0.48594 0.51101 2.3244 0.52917 2.8986 0.0026 0.08264-3.423-2.5301-3.423-2.5301-0.67702-0.5226-0.51467-1.9925-0.49609-2.927z" fill="url(#b)"/><path d="m40.787 62.811 3.39 2.5585c0.65586 0.48594 0.51101 2.3244 0.52917 2.8986 0.0026 0.08264-3.423-2.5301-3.423-2.5301-0.67702-0.5226-0.51467-1.9925-0.49609-2.927z" fill="url(#a)"/><g transform="translate(-.94961 -9.9381)"><path d="m41.56 70.421 3.39 2.5585c0.65586 0.48594 0.51101 2.3244 0.52917 2.8986 0.0026 0.08264-3.423-2.5301-3.423-2.5301-0.67702-0.5226-0.51467-1.9925-0.49609-2.927z" fill="url(#d)"/><path d="m41.358 68.004 3.39 2.5585c0.65586 0.48594 0.51101 2.3244 0.52917 2.8986 0.0026 0.08264-3.423-2.5301-3.423-2.5301-0.67702-0.5226-0.51467-1.9925-0.49609-2.927z" fill="url(#c)"/><path d="m41.044 65.349 3.39 2.5585c0.65586 0.48594 0.51101 2.3244 0.52917 2.8986 0.0026 0.08264-3.423-2.5301-3.423-2.5301-0.67702-0.5226-0.51467-1.9925-0.49609-2.927z" fill="url(#b)"/><path d="m40.787 62.811 3.39 2.5585c0.65586 0.48594 0.51101 2.3244 0.52917 2.8986 0.0026 0.08264-3.423-2.5301-3.423-2.5301-0.67702-0.5226-0.51467-1.9925-0.49609-2.927z" fill="url(#a)"/></g></g></g><g transform="matrix(.22321 .10656 .17694 -.36562 98.468 180.12)" stroke-width="0"><path d="m89.044 160.26c-21.09-57.389-14.607-81.473-6.4108-86.142 2.6158 0.13655 6.903 0.49914 10.008 2.5304-11.892 27.725-12.197 54.464-3.5973 83.611z" fill="#165016"/><path d="m86.222 150.84c-15.295-44.933-11.614-72.071-2.9293-76.68 0.74115-0.20963 6.579 0.6227 8.627 2.0607-10.423 24.301-13.235 49.071-5.6978 74.619z" fill="url(#m)"/></g><g transform="matrix(.17153 .085609 -.13909 .28243 85.999 130.75)" stroke-width="0"><path d="m89.044 160.26c-21.09-57.389-14.607-81.473-6.4108-86.142 2.6158 0.13655 6.903 0.49914 10.008 2.5304-11.892 27.725-12.197 54.464-3.5973 83.611z" fill="#165016"/><path d="m86.222 150.84c-15.295-44.933-11.614-72.071-2.9293-76.68 0.74115-0.20963 6.579 0.6227 8.627 2.0607-10.423 24.301-13.235 49.071-5.6978 74.619z" fill="url(#m)"/></g><g transform="matrix(-.39501 0 0 .39501 175.05 109.83)" stroke-width="0"><path d="m106.7 138.61 13.096-0.37418c1.2459-42.542-8.725-59.582-10.626-61.686-0.62445-1.1692-5.8124 1.1487-8.2591 4.3171 0.0241 1.4478 11.63 14.251 5.7886 57.743z" fill="#165016"/><path d="m108 138.57 10.824-0.30924c-1.572-7.9101-1.1711-48.305-10.859-61.979-1.2106 0.08751-4.6511 1.6917-6.6487 4.0939 0.0241 1.4478 12.525 14.701 6.6837 58.194z" fill="url(#r)"/></g><g transform="matrix(-.22131 .11045 .17945 .3644 141.31 114.96)" stroke-width="0"><path d="m89.044 160.26c-21.09-57.389-14.607-81.473-6.4108-86.142 2.6158 0.13655 6.903 0.49914 10.008 2.5304-11.892 27.725-12.197 54.464-3.5973 83.611z" fill="#165016"/><path d="m86.222 150.84c-15.295-44.933-11.614-72.071-2.9293-76.68 0.74115-0.20963 6.579 0.6227 8.627 2.0607-10.423 24.301-13.235 49.071-5.6978 74.619z" fill="url(#m)"/></g><g transform="matrix(.52158 -.13857 .14728 .53948 45.22 77.75)" stroke-width="0"><path d="m83.816 179.23 13.096-0.37418c-4.5834-20.451 21.928-117.7 37.792-156.41-29.773 47.136-40.654 101.83-50.888 156.78z" fill="#165016"/><path d="m84.938 179.38 10.4-0.56174c-4.5697-24.188 21.446-114.2 34.044-144.94-22.147 39.302-29.769 73.61-44.444 145.5z" fill="url(#n)"/></g><g transform="matrix(-.44266 0 0 .44266 137.05 98.849)" stroke-width="0"><path d="m72.59 180.73 13.096-0.37418c12.058-124.96 22.543-121.01 54.63-49.017-39.942-108.69-55.762-39.692-67.726 49.391z" fill="#165016"/><path d="m74.31 180.99 9.5243-0.50647c10.735-125.23 25.982-123.26 56.482-49.15-41.794-107.63-51.926-38.369-66.006 49.656z" fill="url(#s)"/></g><g transform="matrix(-.32032 -.034496 -.077903 .72339 151.51 50.378)" stroke-width="0"><path d="m62.01 160.26c2.4998 5.1176 5.5553 9.8764 8.7933 9.6992 1.5388-0.0842 2.8258-1.2606 3.8527-2.6661 1.0086-1.3804 1.5999-2.6764 1.5999-2.6764 0.29926-8.8751 0.4371-20.132 0.38125-30.572-0.05607-10.481-0.29531-20.333-0.69327-29.005-0.81162-17.686-2.2091-29.355-4.0896-36.133-1.8345-6.612-4.147-8.6062-6.4934-8.7389-2.3429-0.13243-4.9038 1.6336-7.2887 4.9683-2.4233 3.3884-4.7283 8.4649-6.6447 14.548-1.9132 6.0729-3.3688 12.917-4.1744 20.325-0.80646 7.4163-0.99117 15.647-0.37912 23.654 0.2994 3.9166 0.82348 7.9855 1.6204 10.858 0.79299 2.858 1.9338 4.8074 3.531 3.2239-2.5619 2.2951-4.4821-4.4025-5.7508-9.9117-1.2345-5.3608-2.464-12.588-3.1461-16.877-0.79167-4.9786-1.3849-9.355-1.7785-13.432-0.39553-4.0974-0.59403-7.9412-0.59278-11.59 0.0025-7.3715 0.81664-13.326 2.2972-17.54 1.4724-4.1915 3.5356-6.4956 5.8157-7.4046 2.1875-0.87202 4.8186-0.52572 7.0177 1.5279 2.2904 2.1389 4.3927 6.3 5.9508 15.206 1.5613 8.9242 2.5252 22.531 2.6149 39.659 0.0436 8.3226-0.13153 17.189-0.54188 25.075-0.40691 7.8199-1.0514 14.698-1.9015 17.803z" fill="#165016"/><path d="m63.819 163.61c1.8806 3.2843 4.1174 6.1646 6.5116 6.4539 2.2173 0.26795 4.0041-2.107 4.0041-2.107 0.29268-8.4951 0.47985-19.942 0.50694-30.849 0.02737-11.019-0.1026-21.403-0.38722-30.483-0.57872-18.462-1.7354-30.139-3.3768-36.946-1.6006-6.6374-3.6955-8.7244-5.9082-8.9535-2.2122-0.22909-4.7147 1.4347-7.1944 4.4941-3.9656 4.559-8.2231 12.553-10.417 23.439-1.1136 5.5249-1.733 11.884-1.7387 19.427-0.0028 3.7258 0.14688 7.8289 0.47447 12.019 0.31783 4.0657 0.84926 8.7312 1.6111 12.311-1.5526-5.4422-2.9336-13.468-3.7287-18.535-0.89065-5.6762-1.5452-10.819-1.9426-15.381-0.8055-9.247-0.65999-17.473 0.51126-23.878 1.1693-6.3941 3.2695-10.372 5.9907-12.059 2.5049-1.5533 6.1085-1.3866 9.2396 2.6574 1.6275-0.11491 3.1837 1.7468 4.4427 6.3782 1.2852 4.7278 2.2722 12.355 2.8953 23.452 0.61294 10.917 0.82853 24.923 0.5874 38.18-0.24044 13.219-0.93632 25.599-2.0815 30.38z" fill="url(#k)"/></g><g transform="matrix(-.58245 -.16907 -.16111 .61123 237.13 79.482)" stroke-width="0"><path d="m158.65 181.85 13.096-0.37418c-1.9822-71.986 32.536-133.09 74.461-131.71-57.206-4.4984-78.238 67.772-87.558 132.08z" fill="#165016"/><path d="m160.15 181.77 9.7992-0.17793c-1.6434-59.681 22.741-120.26 63.32-130.89-47.824 7.2508-65.393 77.75-73.12 131.07z" fill="url(#f)"/></g><g transform="matrix(.54186 -.065654 .062349 .57058 9.7897 69.328)" stroke-width="0"><path d="m158.65 181.85 13.096-0.37418c-1.9822-71.986 32.536-133.09 74.461-131.71-57.206-4.4984-78.238 67.772-87.558 132.08z" fill="#165016"/><path d="m160.15 181.77 9.7992-0.17793c-1.6434-59.681 22.741-120.26 63.32-130.89-47.824 7.2508-65.393 77.75-73.12 131.07z" fill="url(#f)"/></g><g transform="matrix(.38165 -.079957 .071433 .34097 56.864 126.96)" stroke-width="0"><path d="m64.414 122.15c4.3663-0.12475 13.096-0.37418 13.096-0.37418 3.4516-117.85-47.2-42.532-23.158 26.654-39.942-108.69 22.025-115.36 10.061-26.279" fill="#165016"/><path d="m66.134 122.01c3.2195 8e-3 9.6566 0.0227 9.6566 0.0227 1.7252-58.906-8.0538-68.803-17.675-57.003-7.6437 8.7662-15.788 30.266-8.128 67.782-16.078-49.437-5.5867-81.518 8.128-67.782 6.5266-1.0463 12.036 27.066 8.0188 56.98z" fill="url(#k)"/></g><g transform="matrix(-.38994 0 0 .48077 154.02 83.861)" stroke-width="0"><path d="m62.01 160.26c2.4998 5.1176 5.5553 9.8764 8.7933 9.6992 1.5388-0.0842 2.8258-1.2606 3.8527-2.6661 1.0086-1.3804 1.5999-2.6764 1.5999-2.6764 0.29926-8.8751 0.4371-20.132 0.38125-30.572-0.05607-10.481-0.29531-20.333-0.69327-29.005-0.81162-17.686-2.2091-29.355-4.0896-36.133-1.8345-6.612-4.147-8.6062-6.4934-8.7389-2.3429-0.13243-4.9038 1.6336-7.2887 4.9683-2.4233 3.3884-4.7283 8.4649-6.6447 14.548-1.9132 6.0729-3.3688 12.917-4.1744 20.325-0.80646 7.4163-0.99117 15.647-0.37912 23.654 0.2994 3.9166 0.82348 7.9855 1.6204 10.858 0.79299 2.858 1.9338 4.8074 3.531 3.2239-2.5619 2.2951-4.4821-4.4025-5.7508-9.9117-1.2345-5.3608-2.464-12.588-3.1461-16.877-0.79167-4.9786-1.3849-9.355-1.7785-13.432-0.39553-4.0974-0.59403-7.9412-0.59278-11.59 0.0025-7.3715 0.81664-13.326 2.2972-17.54 1.4724-4.1915 3.5356-6.4956 5.8157-7.4046 2.1875-0.87202 4.8186-0.52572 7.0177 1.5279 2.2904 2.1389 4.3927 6.3 5.9508 15.206 1.5613 8.9242 2.5252 22.531 2.6149 39.659 0.0436 8.3226-0.13153 17.189-0.54188 25.075-0.40691 7.8199-1.0514 14.698-1.9015 17.803z" fill="#165016"/><path d="m63.819 163.61c1.8806 3.2843 4.1174 6.1646 6.5116 6.4539 2.2173 0.26795 4.0041-2.107 4.0041-2.107 0.29268-8.4951 0.47985-19.942 0.50694-30.849 0.02737-11.019-0.1026-21.403-0.38722-30.483-0.57872-18.462-1.7354-30.139-3.3768-36.946-1.6006-6.6374-3.6955-8.7244-5.9082-8.9535-2.2122-0.22909-4.7147 1.4347-7.1944 4.4941-3.9656 4.559-8.2231 12.553-10.417 23.439-1.1136 5.5249-1.733 11.884-1.7387 19.427-0.0028 3.7258 0.14688 7.8289 0.47447 12.019 0.31783 4.0657 0.84926 8.7312 1.6111 12.311-1.5526-5.4422-2.9336-13.468-3.7287-18.535-0.89065-5.6762-1.5452-10.819-1.9426-15.381-0.8055-9.247-0.65999-17.473 0.51126-23.878 1.1693-6.3941 3.2695-10.372 5.9907-12.059 2.5049-1.5533 6.1085-1.3866 9.2396 2.6574 1.6275-0.11491 3.1837 1.7468 4.4427 6.3782 1.2852 4.7278 2.2722 12.355 2.8953 23.452 0.61294 10.917 0.82853 24.923 0.5874 38.18-0.24044 13.219-0.93632 25.599-2.0815 30.38z" fill="url(#k)"/></g><g transform="matrix(.39501 0 0 .39501 49.887 91.516)" stroke-width="0"><path d="m158.65 181.85 13.096-0.37418c-1.9822-71.986 32.536-133.09 74.461-131.71-57.206-4.4984-78.238 67.772-87.558 132.08z" fill="#165016"/><path d="m160.15 181.77 9.7992-0.17793c-1.6434-59.681 22.741-120.26 63.32-130.89-47.824 7.2508-65.393 77.75-73.12 131.07z" fill="url(#f)"/></g><g transform="matrix(-.39501 0 0 .39501 169.02 91.221)" stroke-width="0"><path d="m158.65 181.85 13.096-0.37418c-1.9822-71.986 32.536-133.09 74.461-131.71-57.206-4.4984-78.238 67.772-87.558 132.08z" fill="#165016"/><path d="m160.15 181.77 9.7992-0.17793c-1.6434-59.681 22.741-120.26 63.32-130.89-47.824 7.2508-65.393 77.75-73.12 131.07z" fill="url(#f)"/></g><g transform="matrix(-.56479 0 0 .56479 159.3 61.976)" stroke-width="0"><path d="m87.206 176.6 13.096-0.37418c-9.2449-44.139-21.456-125.3 44.184-97.379-21.784-30.826-57.84 10.105-57.28 97.753z" fill="#165016"/><path d="m89.012 176.58 10.157-0.26869c-3.2975-15.749-7.6879-37.519-6.25-56.487 1.245-25.756 5.2489-39.961 23.268-46.348 2.1799-1.1479 17.59-2.0547 27.27 4.6141-11.558-14.576-22.19-6.9635-27.27-4.6141-11.695 5.4879-21.14 31.171-23.268 46.348-2.5877 16.61-4.0201 37.96-3.9071 56.756z" fill="url(#t)"/></g><g transform="matrix(-.60247 -.047273 -.047273 .60247 221.38 58.09)" stroke-width="0"><path d="m158.65 181.85 13.096-0.37418c-1.9822-71.986 32.536-133.09 74.461-131.71-57.206-4.4984-78.238 67.772-87.558 132.08z" fill="#165016"/><path d="m160.15 181.77 9.7992-0.17793c-1.6434-59.681 22.741-120.26 63.32-130.89-47.824 7.2508-65.393 77.75-73.12 131.07z" fill="url(#f)"/></g><g transform="matrix(-.2562 0 0 .2562 137.62 114.06)" stroke-width="0"><path d="m158.65 181.85 13.096-0.37418c-1.9822-71.986 32.536-133.09 74.461-131.71-57.206-4.4984-78.238 67.772-87.558 132.08z" fill="#165016"/><path d="m160.15 181.77 9.7992-0.17793c-1.6434-59.681 22.741-120.26 63.32-130.89-47.824 7.2508-65.393 77.75-73.12 131.07z" fill="url(#f)"/></g><g transform="matrix(-.84903 -.10761 -.13616 1.0743 140.4 80.499)" fill-opacity=".99608" stroke-width="1.0387"><g transform="translate(-1.3229 1.8521)"><path d="m41.56 70.421 3.39 2.5585c0.65586 0.48594 0.51101 2.3244 0.52917 2.8986 0.0026 0.08264-3.423-2.5301-3.423-2.5301-0.67702-0.5226-0.51467-1.9925-0.49609-2.927z" fill="url(#d)"/><path d="m41.358 68.004 3.39 2.5585c0.65586 0.48594 0.51101 2.3244 0.52917 2.8986 0.0026 0.08264-3.423-2.5301-3.423-2.5301-0.67702-0.5226-0.51467-1.9925-0.49609-2.927z" fill="url(#c)"/><path d="m41.044 65.349 3.39 2.5585c0.65586 0.48594 0.51101 2.3244 0.52917 2.8986 0.0026 0.08264-3.423-2.5301-3.423-2.5301-0.67702-0.5226-0.51467-1.9925-0.49609-2.927z" fill="url(#b)"/><path d="m40.787 62.811 3.39 2.5585c0.65586 0.48594 0.51101 2.3244 0.52917 2.8986 0.0026 0.08264-3.423-2.5301-3.423-2.5301-0.67702-0.5226-0.51467-1.9925-0.49609-2.927z" fill="url(#a)"/><g transform="translate(-.94961 -9.9381)"><path d="m41.56 70.421 3.39 2.5585c0.65586 0.48594 0.51101 2.3244 0.52917 2.8986 0.0026 0.08264-3.423-2.5301-3.423-2.5301-0.67702-0.5226-0.51467-1.9925-0.49609-2.927z" fill="url(#d)"/><path d="m41.358 68.004 3.39 2.5585c0.65586 0.48594 0.51101 2.3244 0.52917 2.8986 0.0026 0.08264-3.423-2.5301-3.423-2.5301-0.67702-0.5226-0.51467-1.9925-0.49609-2.927z" fill="url(#c)"/><path d="m41.044 65.349 3.39 2.5585c0.65586 0.48594 0.51101 2.3244 0.52917 2.8986 0.0026 0.08264-3.423-2.5301-3.423-2.5301-0.67702-0.5226-0.51467-1.9925-0.49609-2.927z" fill="url(#b)"/><path d="m40.787 62.811 3.39 2.5585c0.65586 0.48594 0.51101 2.3244 0.52917 2.8986 0.0026 0.08264-3.423-2.5301-3.423-2.5301-0.67702-0.5226-0.51467-1.9925-0.49609-2.927z" fill="url(#a)"/></g><g transform="translate(-2.0195 -20.167)"><path d="m41.56 70.421 3.39 2.5585c0.65586 0.48594 0.51101 2.3244 0.52917 2.8986 0.0026 0.08264-3.423-2.5301-3.423-2.5301-0.67702-0.5226-0.51467-1.9925-0.49609-2.927z" fill="url(#d)"/><path d="m41.358 68.004 3.39 2.5585c0.65586 0.48594 0.51101 2.3244 0.52917 2.8986 0.0026 0.08264-3.423-2.5301-3.423-2.5301-0.67702-0.5226-0.51467-1.9925-0.49609-2.927z" fill="url(#c)"/><path d="m41.044 65.349 3.39 2.5585c0.65586 0.48594 0.51101 2.3244 0.52917 2.8986 0.0026 0.08264-3.423-2.5301-3.423-2.5301-0.67702-0.5226-0.51467-1.9925-0.49609-2.927z" fill="url(#b)"/><path d="m40.787 62.811 3.39 2.5585c0.65586 0.48594 0.51101 2.3244 0.52917 2.8986 0.0026 0.08264-3.423-2.5301-3.423-2.5301-0.67702-0.5226-0.51467-1.9925-0.49609-2.927z" fill="url(#a)"/><g transform="translate(-.94961 -9.9381)"><path d="m41.56 70.421 3.39 2.5585c0.65586 0.48594 0.51101 2.3244 0.52917 2.8986 0.0026 0.08264-3.423-2.5301-3.423-2.5301-0.67702-0.5226-0.51467-1.9925-0.49609-2.927z" fill="url(#d)"/><path d="m41.358 68.004 3.39 2.5585c0.65586 0.48594 0.51101 2.3244 0.52917 2.8986 0.0026 0.08264-3.423-2.5301-3.423-2.5301-0.67702-0.5226-0.51467-1.9925-0.49609-2.927z" fill="url(#c)"/><path d="m41.044 65.349 3.39 2.5585c0.65586 0.48594 0.51101 2.3244 0.52917 2.8986 0.0026 0.08264-3.423-2.5301-3.423-2.5301-0.67702-0.5226-0.51467-1.9925-0.49609-2.927z" fill="url(#b)"/><path d="m40.787 62.811 3.39 2.5585c0.65586 0.48594 0.51101 2.3244 0.52917 2.8986 0.0026 0.08264-3.423-2.5301-3.423-2.5301-0.67702-0.5226-0.51467-1.9925-0.49609-2.927z" fill="url(#a)"/></g></g></g><g transform="translate(-5.3336 -38.43)"><path d="m41.56 70.421 3.39 2.5585c0.65586 0.48594 0.51101 2.3244 0.52917 2.8986 0.0026 0.08264-3.423-2.5301-3.423-2.5301-0.67702-0.5226-0.51467-1.9925-0.49609-2.927z" fill="url(#d)"/><path d="m41.358 68.004 3.39 2.5585c0.65586 0.48594 0.51101 2.3244 0.52917 2.8986 0.0026 0.08264-3.423-2.5301-3.423-2.5301-0.67702-0.5226-0.51467-1.9925-0.49609-2.927z" fill="url(#c)"/><path d="m41.044 65.349 3.39 2.5585c0.65586 0.48594 0.51101 2.3244 0.52917 2.8986 0.0026 0.08264-3.423-2.5301-3.423-2.5301-0.67702-0.5226-0.51467-1.9925-0.49609-2.927z" fill="url(#b)"/><path d="m40.787 62.811 3.39 2.5585c0.65586 0.48594 0.51101 2.3244 0.52917 2.8986 0.0026 0.08264-3.423-2.5301-3.423-2.5301-0.67702-0.5226-0.51467-1.9925-0.49609-2.927z" fill="url(#a)"/><g transform="translate(-.94961 -9.9381)"><path d="m41.56 70.421 3.39 2.5585c0.65586 0.48594 0.51101 2.3244 0.52917 2.8986 0.0026 0.08264-3.423-2.5301-3.423-2.5301-0.67702-0.5226-0.51467-1.9925-0.49609-2.927z" fill="url(#d)"/><path d="m41.358 68.004 3.39 2.5585c0.65586 0.48594 0.51101 2.3244 0.52917 2.8986 0.0026 0.08264-3.423-2.5301-3.423-2.5301-0.67702-0.5226-0.51467-1.9925-0.49609-2.927z" fill="url(#c)"/><path d="m41.044 65.349 3.39 2.5585c0.65586 0.48594 0.51101 2.3244 0.52917 2.8986 0.0026 0.08264-3.423-2.5301-3.423-2.5301-0.67702-0.5226-0.51467-1.9925-0.49609-2.927z" fill="url(#b)"/><path d="m40.787 62.811 3.39 2.5585c0.65586 0.48594 0.51101 2.3244 0.52917 2.8986 0.0026 0.08264-3.423-2.5301-3.423-2.5301-0.67702-0.5226-0.51467-1.9925-0.49609-2.927z" fill="url(#a)"/></g><g transform="translate(-2.0195 -20.167)"><path d="m41.56 70.421 3.39 2.5585c0.65586 0.48594 0.51101 2.3244 0.52917 2.8986 0.0026 0.08264-3.423-2.5301-3.423-2.5301-0.67702-0.5226-0.51467-1.9925-0.49609-2.927z" fill="url(#d)"/><path d="m41.358 68.004 3.39 2.5585c0.65586 0.48594 0.51101 2.3244 0.52917 2.8986 0.0026 0.08264-3.423-2.5301-3.423-2.5301-0.67702-0.5226-0.51467-1.9925-0.49609-2.927z" fill="url(#c)"/><path d="m41.044 65.349 3.39 2.5585c0.65586 0.48594 0.51101 2.3244 0.52917 2.8986 0.0026 0.08264-3.423-2.5301-3.423-2.5301-0.67702-0.5226-0.51467-1.9925-0.49609-2.927z" fill="url(#b)"/><path d="m40.787 62.811 3.39 2.5585c0.65586 0.48594 0.51101 2.3244 0.52917 2.8986 0.0026 0.08264-3.423-2.5301-3.423-2.5301-0.67702-0.5226-0.51467-1.9925-0.49609-2.927z" fill="url(#a)"/><g transform="translate(-.94961 -9.9381)"><path d="m41.56 70.421 3.39 2.5585c0.65586 0.48594 0.51101 2.3244 0.52917 2.8986 0.0026 0.08264-3.423-2.5301-3.423-2.5301-0.67702-0.5226-0.51467-1.9925-0.49609-2.927z" fill="url(#d)"/><path d="m41.358 68.004 3.39 2.5585c0.65586 0.48594 0.51101 2.3244 0.52917 2.8986 0.0026 0.08264-3.423-2.5301-3.423-2.5301-0.67702-0.5226-0.51467-1.9925-0.49609-2.927z" fill="url(#c)"/><path d="m41.044 65.349 3.39 2.5585c0.65586 0.48594 0.51101 2.3244 0.52917 2.8986 0.0026 0.08264-3.423-2.5301-3.423-2.5301-0.67702-0.5226-0.51467-1.9925-0.49609-2.927z" fill="url(#b)"/><path d="m40.787 62.811 3.39 2.5585c0.65586 0.48594 0.51101 2.3244 0.52917 2.8986 0.0026 0.08264-3.423-2.5301-3.423-2.5301-0.67702-0.5226-0.51467-1.9925-0.49609-2.927z" fill="url(#a)"/></g></g></g><g transform="translate(-9.4124 -78.827)"><path d="m41.56 70.421 3.39 2.5585c0.65586 0.48594 0.51101 2.3244 0.52917 2.8986 0.0026 0.08264-3.423-2.5301-3.423-2.5301-0.67702-0.5226-0.51467-1.9925-0.49609-2.927z" fill="url(#d)"/><path d="m41.358 68.004 3.39 2.5585c0.65586 0.48594 0.51101 2.3244 0.52917 2.8986 0.0026 0.08264-3.423-2.5301-3.423-2.5301-0.67702-0.5226-0.51467-1.9925-0.49609-2.927z" fill="url(#c)"/><path d="m41.044 65.349 3.39 2.5585c0.65586 0.48594 0.51101 2.3244 0.52917 2.8986 0.0026 0.08264-3.423-2.5301-3.423-2.5301-0.67702-0.5226-0.51467-1.9925-0.49609-2.927z" fill="url(#b)"/><path d="m40.787 62.811 3.39 2.5585c0.65586 0.48594 0.51101 2.3244 0.52917 2.8986 0.0026 0.08264-3.423-2.5301-3.423-2.5301-0.67702-0.5226-0.51467-1.9925-0.49609-2.927z" fill="url(#a)"/><g transform="translate(-.94961 -9.9381)"><path d="m41.56 70.421 3.39 2.5585c0.65586 0.48594 0.51101 2.3244 0.52917 2.8986 0.0026 0.08264-3.423-2.5301-3.423-2.5301-0.67702-0.5226-0.51467-1.9925-0.49609-2.927z" fill="url(#d)"/><path d="m41.358 68.004 3.39 2.5585c0.65586 0.48594 0.51101 2.3244 0.52917 2.8986 0.0026 0.08264-3.423-2.5301-3.423-2.5301-0.67702-0.5226-0.51467-1.9925-0.49609-2.927z" fill="url(#c)"/><path d="m41.044 65.349 3.39 2.5585c0.65586 0.48594 0.51101 2.3244 0.52917 2.8986 0.0026 0.08264-3.423-2.5301-3.423-2.5301-0.67702-0.5226-0.51467-1.9925-0.49609-2.927z" fill="url(#b)"/><path d="m40.787 62.811 3.39 2.5585c0.65586 0.48594 0.51101 2.3244 0.52917 2.8986 0.0026 0.08264-3.423-2.5301-3.423-2.5301-0.67702-0.5226-0.51467-1.9925-0.49609-2.927z" fill="url(#a)"/></g></g></g><g transform="matrix(.4203 0 0 .61677 77.577 51.764)" stroke-width="0"><path d="m87.206 176.6 13.096-0.37418c-9.2449-44.139-21.456-125.3 44.184-97.379-21.784-30.826-57.84 10.105-57.28 97.753z" fill="#165016"/><path d="m89.012 176.58 10.157-0.26869c-3.2975-15.749-7.6879-37.519-6.25-56.487 1.245-25.756 5.2489-39.961 23.268-46.348 2.1799-1.1479 17.59-2.0547 27.27 4.6141-11.558-14.576-22.19-6.9635-27.27-4.6141-11.695 5.4879-21.14 31.171-23.268 46.348-2.5877 16.61-4.0201 37.96-3.9071 56.756z" fill="url(#t)"/></g><g transform="matrix(-.32295 0 0 .32295 150.2 121.27)" stroke-width="0"><path d="m64.414 122.15 13.096-0.37418c3.4516-117.85-47.2-42.532-23.158 26.654-39.942-108.69 22.025-115.36 10.061-26.279z" fill="#165016"/><path d="m66.134 122.01 9.6566 0.0227c1.7252-58.906-8.0538-68.803-17.675-57.003-7.6437 8.7662-15.788 30.266-8.128 67.782-16.078-49.437-5.5867-81.518 8.128-67.782 6.5266-1.0463 12.036 27.066 8.0188 56.98z" fill="url(#k)"/></g><g transform="matrix(.85217 -.079041 .10002 1.0783 91.28 79.338)" fill-opacity=".99608" stroke-width="1.0387"><g transform="translate(-1.3229 1.8521)"><path d="m41.56 70.421 3.39 2.5585c0.65586 0.48594 0.51101 2.3244 0.52917 2.8986 0.0026 0.08264-3.423-2.5301-3.423-2.5301-0.67702-0.5226-0.51467-1.9925-0.49609-2.927z" fill="url(#d)"/><path d="m41.358 68.004 3.39 2.5585c0.65586 0.48594 0.51101 2.3244 0.52917 2.8986 0.0026 0.08264-3.423-2.5301-3.423-2.5301-0.67702-0.5226-0.51467-1.9925-0.49609-2.927z" fill="url(#c)"/><path d="m41.044 65.349 3.39 2.5585c0.65586 0.48594 0.51101 2.3244 0.52917 2.8986 0.0026 0.08264-3.423-2.5301-3.423-2.5301-0.67702-0.5226-0.51467-1.9925-0.49609-2.927z" fill="url(#b)"/><path d="m40.787 62.811 3.39 2.5585c0.65586 0.48594 0.51101 2.3244 0.52917 2.8986 0.0026 0.08264-3.423-2.5301-3.423-2.5301-0.67702-0.5226-0.51467-1.9925-0.49609-2.927z" fill="url(#a)"/><g transform="translate(-.94961 -9.9381)"><path d="m41.56 70.421 3.39 2.5585c0.65586 0.48594 0.51101 2.3244 0.52917 2.8986 0.0026 0.08264-3.423-2.5301-3.423-2.5301-0.67702-0.5226-0.51467-1.9925-0.49609-2.927z" fill="url(#d)"/><path d="m41.358 68.004 3.39 2.5585c0.65586 0.48594 0.51101 2.3244 0.52917 2.8986 0.0026 0.08264-3.423-2.5301-3.423-2.5301-0.67702-0.5226-0.51467-1.9925-0.49609-2.927z" fill="url(#c)"/><path d="m41.044 65.349 3.39 2.5585c0.65586 0.48594 0.51101 2.3244 0.52917 2.8986 0.0026 0.08264-3.423-2.5301-3.423-2.5301-0.67702-0.5226-0.51467-1.9925-0.49609-2.927z" fill="url(#b)"/><path d="m40.787 62.811 3.39 2.5585c0.65586 0.48594 0.51101 2.3244 0.52917 2.8986 0.0026 0.08264-3.423-2.5301-3.423-2.5301-0.67702-0.5226-0.51467-1.9925-0.49609-2.927z" fill="url(#a)"/></g><g transform="translate(-2.0195 -20.167)"><path d="m41.56 70.421 3.39 2.5585c0.65586 0.48594 0.51101 2.3244 0.52917 2.8986 0.0026 0.08264-3.423-2.5301-3.423-2.5301-0.67702-0.5226-0.51467-1.9925-0.49609-2.927z" fill="url(#d)"/><path d="m41.358 68.004 3.39 2.5585c0.65586 0.48594 0.51101 2.3244 0.52917 2.8986 0.0026 0.08264-3.423-2.5301-3.423-2.5301-0.67702-0.5226-0.51467-1.9925-0.49609-2.927z" fill="url(#c)"/><path d="m41.044 65.349 3.39 2.5585c0.65586 0.48594 0.51101 2.3244 0.52917 2.8986 0.0026 0.08264-3.423-2.5301-3.423-2.5301-0.67702-0.5226-0.51467-1.9925-0.49609-2.927z" fill="url(#b)"/><path d="m40.787 62.811 3.39 2.5585c0.65586 0.48594 0.51101 2.3244 0.52917 2.8986 0.0026 0.08264-3.423-2.5301-3.423-2.5301-0.67702-0.5226-0.51467-1.9925-0.49609-2.927z" fill="url(#a)"/><g transform="translate(-.94961 -9.9381)"><path d="m41.56 70.421 3.39 2.5585c0.65586 0.48594 0.51101 2.3244 0.52917 2.8986 0.0026 0.08264-3.423-2.5301-3.423-2.5301-0.67702-0.5226-0.51467-1.9925-0.49609-2.927z" fill="url(#d)"/><path d="m41.358 68.004 3.39 2.5585c0.65586 0.48594 0.51101 2.3244 0.52917 2.8986 0.0026 0.08264-3.423-2.5301-3.423-2.5301-0.67702-0.5226-0.51467-1.9925-0.49609-2.927z" fill="url(#c)"/><path d="m41.044 65.349 3.39 2.5585c0.65586 0.48594 0.51101 2.3244 0.52917 2.8986 0.0026 0.08264-3.423-2.5301-3.423-2.5301-0.67702-0.5226-0.51467-1.9925-0.49609-2.927z" fill="url(#b)"/><path d="m40.787 62.811 3.39 2.5585c0.65586 0.48594 0.51101 2.3244 0.52917 2.8986 0.0026 0.08264-3.423-2.5301-3.423-2.5301-0.67702-0.5226-0.51467-1.9925-0.49609-2.927z" fill="url(#a)"/></g></g></g><g transform="translate(-5.3336 -38.43)"><path d="m41.56 70.421 3.39 2.5585c0.65586 0.48594 0.51101 2.3244 0.52917 2.8986 0.0026 0.08264-3.423-2.5301-3.423-2.5301-0.67702-0.5226-0.51467-1.9925-0.49609-2.927z" fill="url(#d)"/><path d="m41.358 68.004 3.39 2.5585c0.65586 0.48594 0.51101 2.3244 0.52917 2.8986 0.0026 0.08264-3.423-2.5301-3.423-2.5301-0.67702-0.5226-0.51467-1.9925-0.49609-2.927z" fill="url(#c)"/><path d="m41.044 65.349 3.39 2.5585c0.65586 0.48594 0.51101 2.3244 0.52917 2.8986 0.0026 0.08264-3.423-2.5301-3.423-2.5301-0.67702-0.5226-0.51467-1.9925-0.49609-2.927z" fill="url(#b)"/><path d="m40.787 62.811 3.39 2.5585c0.65586 0.48594 0.51101 2.3244 0.52917 2.8986 0.0026 0.08264-3.423-2.5301-3.423-2.5301-0.67702-0.5226-0.51467-1.9925-0.49609-2.927z" fill="url(#a)"/><g transform="translate(-.94961 -9.9381)"><path d="m41.56 70.421 3.39 2.5585c0.65586 0.48594 0.51101 2.3244 0.52917 2.8986 0.0026 0.08264-3.423-2.5301-3.423-2.5301-0.67702-0.5226-0.51467-1.9925-0.49609-2.927z" fill="url(#d)"/><path d="m41.358 68.004 3.39 2.5585c0.65586 0.48594 0.51101 2.3244 0.52917 2.8986 0.0026 0.08264-3.423-2.5301-3.423-2.5301-0.67702-0.5226-0.51467-1.9925-0.49609-2.927z" fill="url(#c)"/><path d="m41.044 65.349 3.39 2.5585c0.65586 0.48594 0.51101 2.3244 0.52917 2.8986 0.0026 0.08264-3.423-2.5301-3.423-2.5301-0.67702-0.5226-0.51467-1.9925-0.49609-2.927z" fill="url(#b)"/><path d="m40.787 62.811 3.39 2.5585c0.65586 0.48594 0.51101 2.3244 0.52917 2.8986 0.0026 0.08264-3.423-2.5301-3.423-2.5301-0.67702-0.5226-0.51467-1.9925-0.49609-2.927z" fill="url(#a)"/></g><g transform="translate(-2.0195 -20.167)"><path d="m41.56 70.421 3.39 2.5585c0.65586 0.48594 0.51101 2.3244 0.52917 2.8986 0.0026 0.08264-3.423-2.5301-3.423-2.5301-0.67702-0.5226-0.51467-1.9925-0.49609-2.927z" fill="url(#d)"/><path d="m41.358 68.004 3.39 2.5585c0.65586 0.48594 0.51101 2.3244 0.52917 2.8986 0.0026 0.08264-3.423-2.5301-3.423-2.5301-0.67702-0.5226-0.51467-1.9925-0.49609-2.927z" fill="url(#c)"/><path d="m41.044 65.349 3.39 2.5585c0.65586 0.48594 0.51101 2.3244 0.52917 2.8986 0.0026 0.08264-3.423-2.5301-3.423-2.5301-0.67702-0.5226-0.51467-1.9925-0.49609-2.927z" fill="url(#b)"/><path d="m40.787 62.811 3.39 2.5585c0.65586 0.48594 0.51101 2.3244 0.52917 2.8986 0.0026 0.08264-3.423-2.5301-3.423-2.5301-0.67702-0.5226-0.51467-1.9925-0.49609-2.927z" fill="url(#a)"/><g transform="translate(-.94961 -9.9381)"><path d="m41.56 70.421 3.39 2.5585c0.65586 0.48594 0.51101 2.3244 0.52917 2.8986 0.0026 0.08264-3.423-2.5301-3.423-2.5301-0.67702-0.5226-0.51467-1.9925-0.49609-2.927z" fill="url(#d)"/><path d="m41.358 68.004 3.39 2.5585c0.65586 0.48594 0.51101 2.3244 0.52917 2.8986 0.0026 0.08264-3.423-2.5301-3.423-2.5301-0.67702-0.5226-0.51467-1.9925-0.49609-2.927z" fill="url(#c)"/><path d="m41.044 65.349 3.39 2.5585c0.65586 0.48594 0.51101 2.3244 0.52917 2.8986 0.0026 0.08264-3.423-2.5301-3.423-2.5301-0.67702-0.5226-0.51467-1.9925-0.49609-2.927z" fill="url(#b)"/><path d="m40.787 62.811 3.39 2.5585c0.65586 0.48594 0.51101 2.3244 0.52917 2.8986 0.0026 0.08264-3.423-2.5301-3.423-2.5301-0.67702-0.5226-0.51467-1.9925-0.49609-2.927z" fill="url(#a)"/></g></g></g><g transform="translate(-9.4124 -78.827)"><path d="m41.56 70.421 3.39 2.5585c0.65586 0.48594 0.51101 2.3244 0.52917 2.8986 0.0026 0.08264-3.423-2.5301-3.423-2.5301-0.67702-0.5226-0.51467-1.9925-0.49609-2.927z" fill="url(#d)"/><path d="m41.358 68.004 3.39 2.5585c0.65586 0.48594 0.51101 2.3244 0.52917 2.8986 0.0026 0.08264-3.423-2.5301-3.423-2.5301-0.67702-0.5226-0.51467-1.9925-0.49609-2.927z" fill="url(#c)"/><path d="m41.044 65.349 3.39 2.5585c0.65586 0.48594 0.51101 2.3244 0.52917 2.8986 0.0026 0.08264-3.423-2.5301-3.423-2.5301-0.67702-0.5226-0.51467-1.9925-0.49609-2.927z" fill="url(#b)"/><path d="m40.787 62.811 3.39 2.5585c0.65586 0.48594 0.51101 2.3244 0.52917 2.8986 0.0026 0.08264-3.423-2.5301-3.423-2.5301-0.67702-0.5226-0.51467-1.9925-0.49609-2.927z" fill="url(#a)"/><g transform="translate(-.94961 -9.9381)"><path d="m41.56 70.421 3.39 2.5585c0.65586 0.48594 0.51101 2.3244 0.52917 2.8986 0.0026 0.08264-3.423-2.5301-3.423-2.5301-0.67702-0.5226-0.51467-1.9925-0.49609-2.927z" fill="url(#d)"/><path d="m41.358 68.004 3.39 2.5585c0.65586 0.48594 0.51101 2.3244 0.52917 2.8986 0.0026 0.08264-3.423-2.5301-3.423-2.5301-0.67702-0.5226-0.51467-1.9925-0.49609-2.927z" fill="url(#c)"/><path d="m41.044 65.349 3.39 2.5585c0.65586 0.48594 0.51101 2.3244 0.52917 2.8986 0.0026 0.08264-3.423-2.5301-3.423-2.5301-0.67702-0.5226-0.51467-1.9925-0.49609-2.927z" fill="url(#b)"/><path d="m40.787 62.811 3.39 2.5585c0.65586 0.48594 0.51101 2.3244 0.52917 2.8986 0.0026 0.08264-3.423-2.5301-3.423-2.5301-0.67702-0.5226-0.51467-1.9925-0.49609-2.927z" fill="url(#a)"/></g></g></g><g transform="matrix(.56679 -.20965 .20965 .56679 -10.386 94.3)" stroke-width="0"><path d="m158.65 181.85 13.096-0.37418c-1.9822-71.986 32.536-133.09 74.461-131.71-57.206-4.4984-78.238 67.772-87.558 132.08z" fill="#165016"/><path d="m160.15 181.77 9.7992-0.17793c-1.6434-59.681 22.741-120.26 63.32-130.89-47.824 7.2508-65.393 77.75-73.12 131.07z" fill="url(#f)"/></g><g transform="matrix(.2562 0 0 .2562 82.166 117.61)" stroke-width="0"><path d="m158.65 181.85 13.096-0.37418c-1.9822-71.986 32.536-133.09 74.461-131.71-57.206-4.4984-78.238 67.772-87.558 132.08z" fill="#165016"/><path d="m160.15 181.77 9.7992-0.17793c-1.6434-59.681 22.741-120.26 63.32-130.89-47.824 7.2508-65.393 77.75-73.12 131.07z" fill="url(#f)"/></g><g transform="matrix(-.35565 -.17188 -.17188 .35565 155.77 109.39)"><path d="m56.514 184.01 13.096-0.37418c-14.035-97.226 49.544-80.84 99.554-85.675-63.687-5.1641-123.94-13.071-112.65 86.049z" fill="#165016" stroke-width="0"/><g stroke-width="1.5116"><path d="m58.596 183.05 8.1864-0.10026c-7.7845-76.536 21.844-85.36 91.895-85.064-69.346-6.3736-110.25 2.6834-100.08 85.164z" fill="url(#p)" stroke-width="0"/></g></g><g transform="matrix(.37596 -.12117 .12117 .37596 79.645 106.23)"><path d="m56.514 184.01 13.096-0.37418c-14.035-97.226 49.544-80.84 99.554-85.675-63.687-5.1641-123.94-13.071-112.65 86.049z" fill="#165016" stroke-width="0"/><g stroke-width="1.5116"><path d="m58.596 183.05 8.1864-0.10026c-7.7845-76.536 21.844-85.36 91.895-85.064-69.346-6.3736-110.25 2.6834-100.08 85.164z" fill="url(#p)" stroke-width="0"/></g></g><g transform="matrix(-.45617 -.071746 -.071746 .45617 165.44 82.498)" stroke-width="0"><path d="m83.816 179.23 13.096-0.37418c-4.5834-20.451 21.928-117.7 37.792-156.41-29.773 47.136-40.654 101.83-50.888 156.78z" fill="#165016"/><path d="m84.938 179.38 10.4-0.56174c-4.5697-24.188 21.446-114.2 34.044-144.94-22.147 39.302-29.769 73.61-44.444 145.5z" fill="url(#n)"/></g><g transform="matrix(-.39501 0 0 .39501 143.05 93.448)" stroke-width="0"><path d="m83.816 179.23 13.096-0.37418c-4.5834-20.451 21.928-117.7 37.792-156.41-29.773 47.136-40.654 101.83-50.888 156.78z" fill="#165016"/><path d="m84.938 179.38 10.4-0.56174c-4.5697-24.188 21.446-114.2 34.044-144.94-22.147 39.302-29.769 73.61-44.444 145.5z" fill="url(#n)"/></g><g transform="matrix(.39501 0 0 .39501 74.466 92.266)" stroke-width="0"><path d="m83.816 179.23 13.096-0.37418c-4.5834-20.451 21.928-117.7 37.792-156.41-29.773 47.136-40.654 101.83-50.888 156.78z" fill="#165016"/><path d="m84.938 179.38 10.4-0.56174c-4.5697-24.188 21.446-114.2 34.044-144.94-22.147 39.302-29.769 73.61-44.444 145.5z" fill="url(#n)"/></g><g transform="matrix(-.39501 0 0 .39501 129.49 91.098)"><path d="m56.514 184.01 13.096-0.37418c-14.035-97.226 49.544-80.84 99.554-85.675-63.687-5.1641-123.94-13.071-112.65 86.049z" fill="#165016" stroke-width="0"/><g stroke-width="1.5116"><path d="m58.596 183.05 8.1864-0.10026c-7.7845-76.536 21.844-85.36 91.895-85.064-69.346-6.3736-110.25 2.6834-100.08 85.164z" fill="url(#p)" stroke-width="0"/></g></g><path d="m114.79 161.84 5.1606 0.38874c-1.8265-17.719-3.3039-50.106 21.343-36.451-7.2975-13.002-23.138 1.6039-26.503 36.062z" fill="#165016" stroke-width="0"/><path d="m115.5 161.91 4.0015 0.30995c-0.65126-6.3223-1.4856-15.055-0.14468-22.449 1.5428-10.068 3.697-15.485 11.038-17.257 0.90341-0.3618 6.9947-0.0877 10.525 2.9284-3.9447-6.1994-8.4334-3.6436-10.525-2.9284-4.8194 1.6777-9.5806 11.382-11.038 17.257-1.6962 6.42-3.1323 14.749-3.8568 22.139z" fill="url(#bi)" stroke-width="0"/><g transform="matrix(.41352 0 0 .39104 89.912 93.784)" stroke-width="0"><path d="m72.59 180.73 13.096-0.37418c12.058-124.96 22.543-121.01 54.63-49.017-39.942-108.69-55.762-39.692-67.726 49.391z" fill="#165016"/><path d="m74.31 180.99 9.5243-0.50647c10.735-125.23 25.982-123.26 56.482-49.15-41.794-107.63-51.926-38.369-66.006 49.656z" fill="url(#s)"/></g><g transform="matrix(.39501 0 0 .39501 62.717 112.63)" stroke-width="0"><path d="m106.7 138.61 13.096-0.37418c1.2459-42.542-8.725-59.582-10.626-61.686-0.62445-1.1692-5.8124 1.1487-8.2591 4.3171 0.0241 1.4478 11.63 14.251 5.7886 57.743z" fill="#165016"/><path d="m108 138.57 10.824-0.30924c-1.572-7.9101-1.1711-48.305-10.859-61.979-1.2106 0.08751-4.6511 1.6917-6.6487 4.0939 0.0241 1.4478 12.525 14.701 6.6837 58.194z" fill="url(#r)"/></g><path d="m129.71 206.8c-6.3664 3.3573-10.531 1.0438-13.793 1.8802-1.5876 0.40699-0.0964 1.0882-0.93751 3.5311" fill="none" stroke="url(#ab)" stroke-linecap="round" stroke-width="2"/><path d="m101.6 206.99c2.5324 2.2763 8.8205 0.63451 12.016 1.1786 1.6157 0.27512 0.0964 1.0882 0.93751 3.5311" fill="none" stroke="url(#ac)" stroke-linecap="round" stroke-width="2"/><g transform="matrix(.38994 0 0 .34837 80.455 105.59)" stroke-width="0"><path d="m62.01 160.26c2.4998 5.1176 5.5553 9.8764 8.7933 9.6992 1.5388-0.0842 2.8258-1.2606 3.8527-2.6661 1.0086-1.3804 1.5999-2.6764 1.5999-2.6764 0.29926-8.8751 0.4371-20.132 0.38125-30.572-0.05607-10.481-0.29531-20.333-0.69327-29.005-0.81162-17.686-2.2091-29.355-4.0896-36.133-1.8345-6.612-4.147-8.6062-6.4934-8.7389-2.3429-0.13243-4.9038 1.6336-7.2887 4.9683-2.4233 3.3884-4.7283 8.4649-6.6447 14.548-1.9132 6.0729-3.3688 12.917-4.1744 20.325-0.80646 7.4163-0.99117 15.647-0.37912 23.654 0.2994 3.9166 0.82348 7.9855 1.6204 10.858 0.79299 2.858 1.9338 4.8074 3.531 3.2239-2.5619 2.2951-4.4821-4.4025-5.7508-9.9117-1.2345-5.3608-2.464-12.588-3.1461-16.877-0.79167-4.9786-1.3849-9.355-1.7785-13.432-0.39553-4.0974-0.59403-7.9412-0.59278-11.59 0.0025-7.3715 0.81664-13.326 2.2972-17.54 1.4724-4.1915 3.5356-6.4956 5.8157-7.4046 2.1875-0.87202 4.8186-0.52572 7.0177 1.5279 2.2904 2.1389 4.3927 6.3 5.9508 15.206 1.5613 8.9242 2.5252 22.531 2.6149 39.659 0.0436 8.3226-0.13153 17.189-0.54188 25.075-0.40691 7.8199-1.0514 14.698-1.9015 17.803z" fill="#165016"/><path d="m63.819 163.61c1.8806 3.2843 4.1174 6.1646 6.5116 6.4539 2.2173 0.26795 4.0041-2.107 4.0041-2.107 0.29268-8.4951 0.47985-19.942 0.50694-30.849 0.02737-11.019-0.1026-21.403-0.38722-30.483-0.57872-18.462-1.7354-30.139-3.3768-36.946-1.6006-6.6374-3.6955-8.7244-5.9082-8.9535-2.2122-0.22909-4.7147 1.4347-7.1944 4.4941-3.9656 4.559-8.2231 12.553-10.417 23.439-1.1136 5.5249-1.733 11.884-1.7387 19.427-0.0028 3.7258 0.14688 7.8289 0.47447 12.019 0.31783 4.0657 0.84926 8.7312 1.6111 12.311-1.5526-5.4422-2.9336-13.468-3.7287-18.535-0.89065-5.6762-1.5452-10.819-1.9426-15.381-0.8055-9.247-0.65999-17.473 0.51126-23.878 1.1693-6.3941 3.2695-10.372 5.9907-12.059 2.5049-1.5533 6.1085-1.3866 9.2396 2.6574 1.6275-0.11491 3.1837 1.7468 4.4427 6.3782 1.2852 4.7278 2.2722 12.355 2.8953 23.452 0.61294 10.917 0.82853 24.923 0.5874 38.18-0.24044 13.219-0.93632 25.599-2.0815 30.38z" fill="url(#k)"/></g><g transform="translate(21.167 26.458)"><path d="m67.659 134.48c-1.2768 0-2.3048 0.37392-2.3048 0.83819v2.1787c0 0.42995 0.88496 0.7781 2.0293 0.82786 0.64588 0.66048 1.7355 2.2289 0.39532 4.423-13.3 21.774 6.6167 31.002 6.7112 35.472 0.07131 3.3725 4.1884 3.2479 4.1884 3.2479l14.859 0.0465v1e-3l0.16743-5.1e-4 15.026-0.047s4.1171 0.12467 4.1884-3.2479c0.0945-4.4697 20.011-13.697 6.7112-35.472-1.3401-2.1941-0.25056-3.7625 0.39532-4.423 1.1444-0.0498 2.0293-0.39791 2.0293-0.82786v-2.1787c0-0.46427-1.028-0.83819-2.3048-0.83819h-26.159z" fill="url(#bh)"/><path d="m120.03 138.32h-52.642c0.76926 0.80087 1.0824 1.7325 1.031 2.4836l50.52 0.0181c0.0372-1.0601 0.48921-1.8328 1.0913-2.5016z" fill="url(#be)"/></g><g transform="matrix(.29818 0 0 .42675 89.315 116.11)" stroke-width="0"><path d="m72.59 71.842c6.1093-4.5013 12.855-5.8206 20.954-0.37418 1.4923 35.587-6.6626 67.958-10.477 101.78-5.025-33.016-9.4674-64.043-10.477-101.4z" fill="#165016"/><path d="m75.333 70.072c7.5178-4.4357 14.535-0.6648 15.665-0.12065 1.4923 35.587-4.1161 55.63-7.9304 89.448-5.025-33.016-6.7251-51.969-7.7346-89.327z" fill="url(#q)"/></g><path d="m117.23 189.15c1.0361 3.1436 6.8913 7.8935 10.951 10.925 1.676 1.2514 2.4535 3.036 4.1943 4.426" fill="none" stroke="url(#az)" stroke-linecap="round" stroke-width="1.998"/><path d="m114.61 189.44c-2.1344 4.1418-8.069 7.4612-12.247 9.909-2.074 1.2152-3.2305 3.757-4.4802 5.3106" stroke="url(#ah)" stroke-linecap="round" stroke-width="1.998"/><path d="m144.18 183.32c0.74596-0.59018 1.8939-2.4004 1.9152-3.0093 0.0614-1.7536-1.3571-2.0347-1.3571-2.0347 0.32203 1.5363-1.8034 3.7874-2.0653 5.0636z" color="#000000" fill="url(#bf)" stroke-linecap="round" style="-inkscape-stroke:none"/><path d="m134.27 155.48c2.8318 10.105 6.8418 19.059 8.0493 28.649" fill="none" stroke="url(#ay)" stroke-linecap="round" stroke-width="2"/><path d="m143.51 186.81c0.26485-0.0205 0.79624 0.0475 0.99779 0.22057 0.95098 0.82036 1.2462 2.279 1.0774 2.8644-0.41625 1.443-1.9246 1.2643-1.9246 1.2643 0.64812-1.4241-0.13619-2.5562-0.84559-3.5422-0.35749-0.74678 0.12534-0.73778 0.695-0.80703z" color="#000000" fill="url(#bg)" stroke-linecap="round" style="-inkscape-stroke:none"/><path d="m142.37 186.99c-2.7719 6.0617-9.0784 10.129-11.416 17.153" fill="none" stroke="url(#ax)" stroke-linecap="round" stroke-width="2"/><path d="m94.491 159.88c5.5022 9.5209 10.158 16.084 18.069 23.123 1.185 1.0543 1.9319 2.2631 2.1231 2.949" fill="none" stroke="url(#aw)" stroke-linecap="round" stroke-width="2"/><g transform="matrix(.6055 0 0 1 80.887 -3.85)" stroke-width="1.2851"><g transform="translate(-1.5449 -.37418)" stroke-linecap="round" stroke-linejoin="round" stroke-width="1.2851"><path d="m106.46 189.52c-1.4586 0.21452-3.7501 0.19992-5.2699 0.0607-0.55019-0.0509-0.68657 0.35408-0.7371 0.9043-0.0509 0.55018 0.12022 0.9672 0.67044 1.0177 1.673 0.1533 3.9693 0.21291 5.6042-0.0275 0.54632-0.0804 0.59665-0.61182 0.51634-1.1582-0.0804-0.54632-0.23764-0.87729-0.78398-0.79698z" color="#000000" fill="url(#i)" style="-inkscape-stroke:none"/><path d="m106.44 188.44c-1.4586 0.21452-3.7501 0.19992-5.2699 0.0607-0.55019-0.0509-0.68657 0.35408-0.7371 0.9043-0.0509 0.55018 0.12022 0.9672 0.67044 1.0177 1.673 0.1533 3.9693 0.21291 5.6042-0.0275 0.54632-0.0804 0.59665-0.61182 0.51634-1.1582-0.0804-0.54632-0.23764-0.87729-0.78398-0.79698z" color="#000000" fill="url(#h)" style="-inkscape-stroke:none"/><path d="m106.42 187.18c-1.4586 0.21452-3.7501 0.19992-5.2699 0.0607-0.55019-0.0509-0.68657 0.35408-0.7371 0.9043-0.0509 0.55018 0.12022 0.9672 0.67044 1.0177 1.673 0.1533 3.9693 0.21291 5.6042-0.0275 0.54632-0.0804 0.59665-0.61182 0.51634-1.1582-0.0804-0.54632-0.23764-0.87729-0.78398-0.79698z" color="#000000" fill="url(#g)" style="-inkscape-stroke:none"/></g></g><path d="m85.921 183.35c-0.74596-0.59018-1.8939-2.4004-1.9152-3.0093-0.0614-1.7536 1.0061-2.1104 1.0061-2.1104-0.32203 1.5363 2.1544 3.8631 2.4164 5.1393z" color="#000000" fill="url(#bd)" stroke-linecap="round" style="-inkscape-stroke:none"/><path d="m94.25 158.8c-3.5174 8.9999-6.6699 17.973-6.811 27.072" fill="none" stroke="url(#ae)" stroke-linecap="round" stroke-width="2"/><path d="m86.755 187.31c-0.26485-0.0205-0.79624 0.0475-0.99779 0.22057-0.95098 0.82036-1.4194 2.5-1.2505 3.0854 0.41625 1.443 1.9246 1.2643 1.9246 1.2643-0.64812-1.4241 0.13619-2.5562 0.84559-3.5422 0.35749-0.74678 0.0478-0.95878-0.52186-1.028z" color="#000000" fill="url(#bc)" stroke-linecap="round" style="-inkscape-stroke:none"/><path d="m87.404 186.08c2.2305 6.4226 7.7468 11.75 11.994 17.5" fill="none" stroke="url(#ad)" stroke-linecap="round" stroke-width="2"/><g transform="matrix(1 0 0 1.1635 22.422 -4.1926)" fill="none" stroke-linecap="round" stroke-width="1.8541"><path d="m93.57 189.03c-0.68253 4.1101-1.7816 8.3762-1.3093 11.075 0.47512 2.7156 1.5814 4.8195-0.71559 15.525-1.1434 5.3289 1.9744 7.7889 1.4876 15.12" stroke="url(#ao)"/><path d="m92.786 187.63c-1.3692 7.4131 3.4907 3.8828-1.0894 23.075-1.1434 4.7912 0.0096 9.5261 0.55214 14.435" stroke="url(#at)"/><path d="m94.021 188.09c-2.3862 7.1508-0.50575 14.808-0.55774 21.711-0.0371 4.9256-2.2148 9.1197-2.3599 14.057" stroke="url(#ap)"/><path d="m94.938 187.35c-1.3692 7.4131 1.5572 14.734 2.4652 21.578 0.64785 4.8829-0.92584 9.339-0.3833 14.248" stroke="url(#au)"/><path d="m94.007 188.28c1.3692 7.4131-3.4907 3.8828 1.0894 23.075 1.1434 4.7912-0.0096 9.5261-0.55214 14.435" stroke="url(#as)"/><path d="m93.633 187.07c0.68253 4.1101 1.7816 8.3762 1.3093 11.075-0.47512 2.7156-1.5814 4.8195 0.71559 15.525 1.1434 5.3289-1.9744 7.7889-1.4876 15.12" stroke="url(#ar)"/><path d="m95.074 187.54c-0.4701 4.1398-1.3481 8.4567-0.73757 11.128 0.61424 2.6876 1.8273 4.7317 0.08431 15.541-0.86764 5.3806 2.3727 7.6769 2.2637 15.023" stroke="url(#aq)"/><path d="m91.317 187.44c-2.2656 7.19-0.25661 14.814-0.19248 21.718 0.04576 4.9255-2.0611 9.1556-2.1231 14.094" stroke="url(#an)"/><path d="m92.22 187.44c2.2656 7.19 0.25661 14.814 0.19248 21.718-0.04576 4.9255 2.0611 9.1556 2.1231 14.094" stroke="url(#av)"/></g><path d="m99.03 204.69c2.5311 2.2815 6.387 3.3783 9.069 3.2366 1.7965-0.095 5.329-0.33331 5.9421 1.7538 0.20135 0.68533-0.16088 1.2383 0.65469 1.6875" fill="none" stroke="url(#ak)" stroke-linecap="round" stroke-width="2"/><path d="m98.262 204.45c-0.26485-0.0205-0.52696 0.0652-0.72852 0.23828-0.95097 0.82036-1.367 1.9639-1.3466 2.8467 0.03329 1.444 2.6401 0.30791 2.5639 0.29486l-0.79014-0.24311c-0.17339-0.0533 0.78791-1.4263 1.2302-2.0257 0.41849-0.3603 0.11494-0.34876-0.2453-0.7673-0.17328-0.20068-0.41917-0.32432-0.68359-0.34375z" color="#000000" fill="url(#al)" stroke-linecap="round" style="-inkscape-stroke:none"/><g transform="translate(-4.9322 13.923)" stroke-linecap="round" stroke-linejoin="round"><path d="m106.46 189.52c-1.4586 0.21452-3.7501 0.19992-5.2699 0.0607-0.55019-0.0509-0.68657 0.35408-0.7371 0.9043-0.0509 0.55018 0.12022 0.9672 0.67044 1.0177 1.673 0.1533 3.9693 0.21291 5.6042-0.0275 0.54632-0.0804 0.59665-0.61182 0.51634-1.1582-0.0804-0.54632-0.23764-0.87729-0.78398-0.79698z" color="#000000" fill="url(#i)" style="-inkscape-stroke:none"/><path d="m106.44 188.44c-1.4586 0.21452-3.7501 0.19992-5.2699 0.0607-0.55019-0.0509-0.68657 0.35408-0.7371 0.9043-0.0509 0.55018 0.12022 0.9672 0.67044 1.0177 1.673 0.1533 3.9693 0.21291 5.6042-0.0275 0.54632-0.0804 0.59665-0.61182 0.51634-1.1582-0.0804-0.54632-0.23764-0.87729-0.78398-0.79698z" color="#000000" fill="url(#h)" style="-inkscape-stroke:none"/><path d="m106.42 187.18c-1.4586 0.21452-3.7501 0.19992-5.2699 0.0607-0.55019-0.0509-0.68657 0.35408-0.7371 0.9043-0.0509 0.55018 0.12022 0.9672 0.67044 1.0177 1.673 0.1533 3.9693 0.21291 5.6042-0.0275 0.54632-0.0804 0.59665-0.61182 0.51634-1.1582-0.0804-0.54632-0.23764-0.87729-0.78398-0.79698z" color="#000000" fill="url(#g)" style="-inkscape-stroke:none"/></g><path d="m130.22 204.51c-3.509 4.4546-6.1805 3.9178-9.4431 3.6575-1.7889-0.14273-3.4594-0.53113-4.7742 1.0021-0.46498 0.54222-0.63287 1.569-1.4484 2.0182" fill="none" stroke="url(#aj)" stroke-linecap="round" stroke-width="2"/><path d="m111.96 209.03c1.887 0.56664 3.956 0.67851 6.3411 0 0.5287-0.1504 0.99219 0.44252 0.99219 0.99219v4.1896c0 0.54967-0.47 0.82056-0.99219 0.99219-3.5652 1.1718-5.3191 0.202-6.3411 0-0.53925-0.10658-0.99219-0.44252-0.99219-0.99219v-4.1896c0-0.54967 0.46574-1.1503 0.99219-0.99219z" fill="url(#am)" stroke-linecap="round" stroke-width="2"/><path d="m130.9 204.52c0.26485-0.0205 0.99468-0.0517 1.1962 0.12135 0.95098 0.82036 1.3142 2.1954 0.87891 2.9636-1.0814 1.9086-2.6191 0.30516-2.6191 0.30516 0.27729-0.0453 0.59055 7.4e-4 0.84532-0.25341 0.12842-0.12811-0.55405-1.7304-0.99638-2.3297-0.41849-0.3603-0.3488-0.0447 0.0114-0.46328 0.17329-0.20068 0.41917-0.32432 0.6836-0.34375z" color="#000000" fill="url(#bj)" stroke-linecap="round" style="-inkscape-stroke:none"/><g transform="translate(26.873 14.11)" stroke-linecap="round" stroke-linejoin="round"><path d="m106.46 189.52c-1.4586 0.21452-3.7501 0.19992-5.2699 0.0607-0.55019-0.0509-0.68657 0.35408-0.7371 0.9043-0.0509 0.55018 0.12022 0.9672 0.67044 1.0177 1.673 0.1533 3.9693 0.21291 5.6042-0.0275 0.54632-0.0804 0.59665-0.61182 0.51634-1.1582-0.0804-0.54632-0.23764-0.87729-0.78398-0.79698z" color="#000000" fill="url(#i)" style="-inkscape-stroke:none"/><path d="m106.44 188.44c-1.4586 0.21452-3.7501 0.19992-5.2699 0.0607-0.55019-0.0509-0.68657 0.35408-0.7371 0.9043-0.0509 0.55018 0.12022 0.9672 0.67044 1.0177 1.673 0.1533 3.9693 0.21291 5.6042-0.0275 0.54632-0.0804 0.59665-0.61182 0.51634-1.1582-0.0804-0.54632-0.23764-0.87729-0.78398-0.79698z" color="#000000" fill="url(#h)" style="-inkscape-stroke:none"/><path d="m106.42 187.18c-1.4586 0.21452-3.7501 0.19992-5.2699 0.0607-0.55019-0.0509-0.68657 0.35408-0.7371 0.9043-0.0509 0.55018 0.12022 0.9672 0.67044 1.0177 1.673 0.1533 3.9693 0.21291 5.6042-0.0275 0.54632-0.0804 0.59665-0.61182 0.51634-1.1582-0.0804-0.54632-0.23764-0.87729-0.78398-0.79698z" color="#000000" fill="url(#g)" style="-inkscape-stroke:none"/></g><path d="m134.89 159.13c-3.934 10.678-10.2 18.018-16.296 24.623-0.45911 0.49748-1.6996 1.9429-1.9556 2.7119" fill="none" stroke="url(#ai)" stroke-linecap="round" stroke-width="2"/><g transform="matrix(.6055 0 0 1 24.667 -4.1307)" stroke-linecap="round" stroke-linejoin="round" stroke-width="1.2851"><path d="m106.46 189.52c-1.4586 0.21452-3.7501 0.19992-5.2699 0.0607-0.55019-0.0509-0.68657 0.35408-0.7371 0.9043-0.0509 0.55018 0.12022 0.9672 0.67044 1.0177 1.673 0.1533 3.9693 0.21291 5.6042-0.0275 0.54632-0.0804 0.59665-0.61182 0.51634-1.1582-0.0804-0.54632-0.23764-0.87729-0.78398-0.79698z" color="#000000" fill="url(#i)" style="-inkscape-stroke:none"/><path d="m106.44 188.44c-1.4586 0.21452-3.7501 0.19992-5.2699 0.0607-0.55019-0.0509-0.68657 0.35408-0.7371 0.9043-0.0509 0.55018 0.12022 0.9672 0.67044 1.0177 1.673 0.1533 3.9693 0.21291 5.6042-0.0275 0.54632-0.0804 0.59665-0.61182 0.51634-1.1582-0.0804-0.54632-0.23764-0.87729-0.78398-0.79698z" color="#000000" fill="url(#h)" style="-inkscape-stroke:none"/><path d="m106.42 187.18c-1.4586 0.21452-3.7501 0.19992-5.2699 0.0607-0.55019-0.0509-0.68657 0.35408-0.7371 0.9043-0.0509 0.55018 0.12022 0.9672 0.67044 1.0177 1.673 0.1533 3.9693 0.21291 5.6042-0.0275 0.54632-0.0804 0.59665-0.61182 0.51634-1.1582-0.0804-0.54632-0.23764-0.87729-0.78398-0.79698z" color="#000000" fill="url(#g)" style="-inkscape-stroke:none"/></g><path d="m92.906 153.45c1.1547 0.7666 2.5043 1.1046 4.1926 0.69777 0.37426-0.0902 0.58337 0.54569 0.49314 1.0879l-0.68779 4.1327c-0.09024 0.54222-0.44547 0.75771-0.81891 0.86955-2.5496 0.76362-3.5501-0.38604-4.1926-0.69776-0.33904-0.16447-0.58337-0.5457-0.49314-1.0879l0.68779-4.1327c0.09024-0.54221 0.49678-1.0834 0.81891-0.86955z" fill="url(#ag)" stroke-linecap="round" stroke-width="2"/><g transform="matrix(.38766 .07581 -.07581 .38766 75.713 106.31)" stroke-width="0"><path d="m89.044 160.26c-21.09-57.389-14.607-81.473-6.4108-86.142 2.6158 0.13655 6.903 0.49914 10.008 2.5304-11.892 27.725-12.197 54.464-3.5973 83.611z" fill="#165016"/><path d="m86.222 150.84c-15.295-44.933-11.614-72.071-2.9293-76.68 0.74115-0.20963 6.579 0.6227 8.627 2.0607-10.423 24.301-13.235 49.071-5.6978 74.619z" fill="url(#m)"/></g><g transform="translate(12.004 -1.7921)" stroke-linecap="round" stroke-linejoin="round"><path d="m106.46 189.52c-1.4586 0.21452-3.7501 0.19992-5.2699 0.0607-0.55019-0.0509-0.68657 0.35408-0.7371 0.9043-0.0509 0.55018 0.12022 0.9672 0.67044 1.0177 1.673 0.1533 3.9693 0.21291 5.6042-0.0275 0.54632-0.0804 0.59665-0.61182 0.51634-1.1582-0.0804-0.54632-0.23764-0.87729-0.78398-0.79698z" color="#000000" fill="url(#i)" style="-inkscape-stroke:none"/><path d="m106.44 188.44c-1.4586 0.21452-3.7501 0.19992-5.2699 0.0607-0.55019-0.0509-0.68657 0.35408-0.7371 0.9043-0.0509 0.55018 0.12022 0.9672 0.67044 1.0177 1.673 0.1533 3.9693 0.21291 5.6042-0.0275 0.54632-0.0804 0.59665-0.61182 0.51634-1.1582-0.0804-0.54632-0.23764-0.87729-0.78398-0.79698z" color="#000000" fill="url(#h)" style="-inkscape-stroke:none"/><path d="m106.42 187.18c-1.4586 0.21452-3.7501 0.19992-5.2699 0.0607-0.55019-0.0509-0.68657 0.35408-0.7371 0.9043-0.0509 0.55018 0.12022 0.9672 0.67044 1.0177 1.673 0.1533 3.9693 0.21291 5.6042-0.0275 0.54632-0.0804 0.59665-0.61182 0.51634-1.1582-0.0804-0.54632-0.23764-0.87729-0.78398-0.79698z" color="#000000" fill="url(#g)" style="-inkscape-stroke:none"/></g><g transform="translate(21.167 26.458)" stroke-linecap="round"><g transform="matrix(-1 0 0 1 210.36 -.18709)" stroke-linejoin="round"><path d="m114.62 15.94c-0.21452-1.4586-0.19992-3.7501-0.0607-5.2699 0.0509-0.55019-0.35408-0.68657-0.9043-0.7371-0.55018-0.0509-0.9672 0.12022-1.0177 0.67044-0.28 1.5278-0.38608 3.9569 0.0275 5.6042 0.0804 0.54632 0.61182 0.59665 1.1582 0.51634 0.54632-0.0804 0.87729-0.23764 0.79698-0.78398z" color="#000000" fill="url(#x)" style="-inkscape-stroke:none"/><path d="m115.7 15.94c-0.21452-1.4586-0.19992-3.7501-0.0607-5.2699 0.0509-0.55019-0.35408-0.68657-0.9043-0.7371-0.55018-0.0509-0.9672 0.12022-1.0177 0.67044-0.1533 1.673-0.21291 3.9693 0.0275 5.6042 0.0804 0.54632 0.61182 0.59665 1.1582 0.51634 0.54632-0.0804 0.87729-0.23764 0.79698-0.78398z" color="#000000" fill="url(#w)" style="-inkscape-stroke:none"/><path d="m116.76 15.94c-0.21452-1.4586-0.19992-3.7501-0.0607-5.2699 0.0509-0.55019-0.35408-0.68657-0.9043-0.7371-0.55018-0.0509-0.9672 0.12022-1.0177 0.67044-0.1533 1.673-0.21291 3.9693 0.0275 5.6042 0.0804 0.54632 0.61182 0.59665 1.1582 0.51634 0.54632-0.0804 0.87729-0.23764 0.79698-0.78398z" color="#000000" fill="url(#v)" style="-inkscape-stroke:none"/><path d="m117.89 15.94c-0.21452-1.4586-0.19992-3.7501-0.0607-5.2699 0.0509-0.55019-0.35408-0.68657-0.9043-0.7371-0.55018-0.0509-0.9672 0.12022-1.0177 0.67044-0.1533 1.673-0.21291 3.9693 0.0275 5.6042 0.0804 0.54632 0.61182 0.59665 1.1582 0.51634 0.54632-0.0804 0.87729-0.23764 0.79698-0.78398z" color="#000000" fill="url(#u)" style="-inkscape-stroke:none"/></g><ellipse transform="rotate(90)" cx="8.6304" cy="-95.131" rx="4.7355" ry="3.8994" fill="none" stroke="url(#y)" stroke-width="2"/><g transform="translate(-8.7089 -162.02)" stroke-linejoin="round"><path d="m106.46 189.52c-1.4586 0.21452-3.7501 0.19992-5.2699 0.0607-0.55019-0.0509-0.68657 0.35408-0.7371 0.9043-0.0509 0.55018 0.12022 0.9672 0.67044 1.0177 1.673 0.1533 3.9693 0.21291 5.6042-0.0275 0.54632-0.0804 0.59665-0.61182 0.51634-1.1582-0.0804-0.54632-0.23764-0.87729-0.78398-0.79698z" color="#000000" fill="url(#i)" style="-inkscape-stroke:none"/><path d="m106.44 188.44c-1.4586 0.21452-3.7501 0.19992-5.2699 0.0607-0.55019-0.0509-0.68657 0.35408-0.7371 0.9043-0.0509 0.55018 0.12022 0.9672 0.67044 1.0177 1.673 0.1533 3.9693 0.21291 5.6042-0.0275 0.54632-0.0804 0.59665-0.61182 0.51634-1.1582-0.0804-0.54632-0.23764-0.87729-0.78398-0.79698z" color="#000000" fill="url(#h)" style="-inkscape-stroke:none"/><path d="m106.42 187.18c-1.4586 0.21452-3.7501 0.19992-5.2699 0.0607-0.55019-0.0509-0.68657 0.35408-0.7371 0.9043-0.0509 0.55018 0.12022 0.9672 0.67044 1.0177 1.673 0.1533 3.9693 0.21291 5.6042-0.0275 0.54632-0.0804 0.59665-0.61182 0.51634-1.1582-0.0804-0.54632-0.23764-0.87729-0.78398-0.79698z" color="#000000" fill="url(#g)" style="-inkscape-stroke:none"/></g><g transform="translate(-20.182 -.30402)" stroke-linejoin="round"><path d="m114.62 15.94c-0.21452-1.4586-0.19992-3.7501-0.0607-5.2699 0.0509-0.55019-0.35408-0.68657-0.9043-0.7371-0.55018-0.0509-0.9672 0.12022-1.0177 0.67044-0.28 1.5278-0.38608 3.9569 0.0275 5.6042 0.0804 0.54632 0.61182 0.59665 1.1582 0.51634 0.54632-0.0804 0.87729-0.23764 0.79698-0.78398z" color="#000000" fill="url(#x)" style="-inkscape-stroke:none"/><path d="m115.7 15.94c-0.21452-1.4586-0.19992-3.7501-0.0607-5.2699 0.0509-0.55019-0.35408-0.68657-0.9043-0.7371-0.55018-0.0509-0.9672 0.12022-1.0177 0.67044-0.1533 1.673-0.21291 3.9693 0.0275 5.6042 0.0804 0.54632 0.61182 0.59665 1.1582 0.51634 0.54632-0.0804 0.87729-0.23764 0.79698-0.78398z" color="#000000" fill="url(#w)" style="-inkscape-stroke:none"/><path d="m116.76 15.94c-0.21452-1.4586-0.19992-3.7501-0.0607-5.2699 0.0509-0.55019-0.35408-0.68657-0.9043-0.7371-0.55018-0.0509-0.9672 0.12022-1.0177 0.67044-0.1533 1.673-0.21291 3.9693 0.0275 5.6042 0.0804 0.54632 0.61182 0.59665 1.1582 0.51634 0.54632-0.0804 0.87729-0.23764 0.79698-0.78398z" color="#000000" fill="url(#v)" style="-inkscape-stroke:none"/><path d="m117.89 15.94c-0.21452-1.4586-0.19992-3.7501-0.0607-5.2699 0.0509-0.55019-0.35408-0.68657-0.9043-0.7371-0.55018-0.0509-0.9672 0.12022-1.0177 0.67044-0.1533 1.673-0.21291 3.9693 0.0275 5.6042 0.0804 0.54632 0.61182 0.59665 1.1582 0.51634 0.54632-0.0804 0.87729-0.23764 0.79698-0.78398z" color="#000000" fill="url(#u)" style="-inkscape-stroke:none"/></g><g transform="translate(-8.7089 -171.47)" stroke-linejoin="round"><path d="m106.46 189.52c-1.4586 0.21452-3.7501 0.19992-5.2699 0.0607-0.55019-0.0509-0.68657 0.35408-0.7371 0.9043-0.0509 0.55018 0.12022 0.9672 0.67044 1.0177 1.6272 0.79449 3.9569 0.38608 5.6042-0.0275 0.54632-0.0804 0.59665-0.61182 0.51634-1.1582-0.0804-0.54632-0.23764-0.87729-0.78398-0.79698z" color="#000000" fill="url(#ba)" style="-inkscape-stroke:none"/><path d="m106.44 188.44c-1.4586 0.21452-3.7501 0.19992-5.2699 0.0607-0.55019-0.0509-0.68657 0.35408-0.7371 0.9043-0.0509 0.55018 0.12022 0.9672 0.67044 1.0177 1.673 0.1533 3.9693 0.21291 5.6042-0.0275 0.54632-0.0804 0.59665-0.61182 0.51634-1.1582-0.0804-0.54632-0.23764-0.87729-0.78398-0.79698z" color="#000000" fill="url(#h)" style="-inkscape-stroke:none"/><path d="m106.42 187.18c-1.4586 0.21452-3.7501 0.19992-5.2699 0.0607-0.55019-0.0509-0.68657 0.35408-0.7371 0.9043-0.0509 0.55018 0.12022 0.9672 0.67044 1.0177 1.673 0.1533 3.9693 0.21291 5.6042-0.0275 0.54632-0.0804 0.59665-0.61182 0.51634-1.1582-0.0804-0.54632-0.23764-0.87729-0.78398-0.79698z" color="#000000" fill="url(#g)" style="-inkscape-stroke:none"/></g><path d="m91.961 19.805c1.887 0.56664 3.956 0.67851 6.3411 0 0.52869-0.1504 0.99218 0.44252 0.99218 0.99219v4.1896c0 0.54967-0.45877 0.85951-0.99218 0.99219-3.3642 0.83681-5.7409 0.1498-6.3411 0-0.53332-0.1331-0.99218-0.44252-0.99218-0.99219v-4.1896c0-0.54967 0.46574-1.1503 0.99218-0.99219z" fill="url(#bb)" stroke-width="2"/></g><g transform="matrix(.20778 -.050985 .07297 .29738 104.7 138.6)" stroke-width="0"><path d="m72.59 71.842c6.1093-4.5013 12.855-5.8206 20.954-0.37418 1.4923 35.587-6.6626 67.958-10.477 101.78-5.025-33.016-9.4674-64.043-10.477-101.4z" fill="#165016"/><path d="m75.333 70.072c7.5178-4.4357 14.535-0.6648 15.665-0.12065 1.4923 35.587-4.1161 55.63-7.9304 89.448-5.025-33.016-6.7251-51.969-7.7346-89.327z" fill="url(#q)"/></g><path d="m136.22 153.82c-1.1547 0.7666-2.5043 1.1046-4.1926 0.69777-0.37426-0.0902-0.58338 0.54569-0.49314 1.0879l0.68779 4.1327c0.0902 0.54222 0.44547 0.75771 0.81891 0.86955 2.5496 0.76362 3.5501-0.38604 4.1926-0.69776 0.33904-0.16447 0.58337-0.5457 0.49313-1.0879l-0.68779-4.1327c-0.0902-0.54221-0.49677-1.0834-0.8189-0.86955z" fill="url(#af)" stroke-linecap="round" stroke-width="2"/></g></svg>