<?xml version='1.0' encoding='utf-8'?>
<svg xmlns:xlink="http://www.w3.org/1999/xlink" xmlns="http://www.w3.org/2000/svg" width="186.14mm" height="251.94mm" version="1.1" viewBox="0 0 186.14 251.94"> <defs> <linearGradient id="c"> <stop stop-color="#501616" offset="0"/> <stop stop-color="#701f1f" offset=".085526"/> <stop stop-color="#8f2828" offset=".26316"/> <stop stop-color="#a52e2e" offset=".5"/> <stop stop-color="#8f2828" offset=".73026"/> <stop stop-color="#701f1f" offset=".91886"/> <stop stop-color="#501616" offset="1"/> </linearGradient> <linearGradient id="j"> <stop stop-color="#bcd35f" offset=".098684"/> <stop stop-color="#bcd35f" stop-opacity=".55298" offset="1"/> </linearGradient> <linearGradient id="r"> <stop stop-color="#bcd35f" offset="0"/> <stop stop-color="#bcd35f" stop-opacity=".55298" offset="1"/> </linearGradient> <linearGradient id="a"> <stop stop-color="#bcd35f" stop-opacity=".55298" offset="0"/> <stop stop-color="#bcd35f" offset="1"/> </linearGradient> <filter id="s" x="-.027542" y="-.46966" width="1.0551" height="1.9393" color-interpolation-filters="sRGB"> <feGaussianBlur stdDeviation="1.1743155"/> </filter> <linearGradient id="q" x1="83.067" x2="82.319" y1="66.978" y2="175.49" gradientUnits="userSpaceOnUse"> <stop stop-color="#bcd35f" stop-opacity=".55298" offset="0"/> <stop stop-color="#bcd35f" offset=".46053"/> </linearGradient> <linearGradient id="b" x1="172.87" x2="232.74" y1="165.76" y2="59.868" gradientTransform="translate(-5.9868 11.225)" gradientUnits="userSpaceOnUse" xlink:href="#a"/> <linearGradient id="f" x1="89.428" x2="125.35" y1="177.36" y2="36.295" gradientUnits="userSpaceOnUse" xlink:href="#a"/> <linearGradient id="e" x1="61.383" x2="141.82" y1="183.09" y2="115.36" gradientUnits="userSpaceOnUse" xlink:href="#a"/> <linearGradient id="d" x1="93.935" x2="137.75" y1="170.52" y2="79.222" gradientTransform="translate(-2.2451 1.1225)" gradientUnits="userSpaceOnUse" xlink:href="#a"/> <linearGradient id="i" x1="85.687" x2="100.65" y1="178.11" y2="74.835" gradientUnits="userSpaceOnUse" xlink:href="#a"/> <linearGradient id="h" x1="63.61" x2="67.352" y1="59.681" y2="123.29" gradientUnits="userSpaceOnUse" xlink:href="#r"/> <linearGradient id="p" x1="83.067" x2="82.319" y1="66.978" y2="175.49" gradientUnits="userSpaceOnUse"> <stop stop-color="#d0e08e" stop-opacity=".99338" offset="0"/> <stop stop-color="#b1cc46" offset=".99123"/> </linearGradient> <linearGradient id="g" x1="107.82" x2="111.39" y1="75.935" y2="138.51" gradientUnits="userSpaceOnUse" xlink:href="#j"/> <linearGradient id="o" x1="92.642" x2="86.393" y1="158.46" y2="74.348" gradientUnits="userSpaceOnUse"> <stop stop-color="#bcd35f" stop-opacity=".55298" offset="0"/> <stop stop-color="#bcd35f" offset=".90132"/> </linearGradient> <linearGradient id="n" x1="108.48" x2="108.48" y1="98.425" y2="161.89" gradientUnits="userSpaceOnUse" xlink:href="#c"/> <linearGradient id="m" x1="54.409" x2="164.86" y1="92.498" y2="92.498" gradientUnits="userSpaceOnUse" xlink:href="#c"/> <linearGradient id="l" x1="54.409" x2="164.86" y1="92.498" y2="92.498" gradientTransform="matrix(1 0 0 -1 0 259.95)" gradientUnits="userSpaceOnUse" xlink:href="#c"/> <linearGradient id="k" x1="110.2" x2="110.2" y1="97.66" y2="104.21" gradientTransform="matrix(.95083 0 0 .95083 5.395 6.2626)" gradientUnits="userSpaceOnUse"> <stop stop-color="#501616" offset="0"/> <stop stop-color="#952a2a" stop-opacity=".18543" offset="1"/> </linearGradient> </defs> <g transform="translate(-14.404 -14.615)"> <g transform="matrix(.79535 0 0 .79535 29.732 62.102)"> <g transform="matrix(-1.5252 -.11968 -.11968 1.5252 382.52 -92.105)" stroke-width="0"> <path d="m158.65 181.85 13.096-0.37418c-1.9822-71.986 32.536-133.09 74.461-131.71-57.206-4.4984-78.238 67.772-87.558 132.08z" fill="#165016"/> <path d="m160.15 181.77 9.7992-0.17793c-1.6434-59.681 22.741-120.26 63.32-130.89-47.824 7.2508-65.393 77.75-73.12 131.07z" fill="url(#b)"/> </g> <g transform="translate(-2.2451 59.868)" stroke-width="0"> <path d="m64.414 122.15 13.096-0.37418c3.4516-117.85-47.2-42.532-23.158 26.654-39.942-108.69 22.025-115.36 10.061-26.279z" fill="#165016"/> <path d="m66.134 122.01 9.6566 0.0227c1.7252-58.906-8.0538-68.803-17.675-57.003-7.6437 8.7662-15.788 30.266-8.128 67.782-16.078-49.437-5.5867-81.518 8.128-67.782 6.5266-1.0463 12.036 27.066 8.0188 56.98z" fill="url(#h)"/> </g> <g transform="matrix(.6486 0 0 .6486 30.08 58.576)" stroke-width="0"> <path d="m158.65 181.85 13.096-0.37418c-1.9822-71.986 32.536-133.09 74.461-131.71-57.206-4.4984-78.238 67.772-87.558 132.08z" fill="#165016"/> <path d="m160.15 181.77 9.7992-0.17793c-1.6434-59.681 22.741-120.26 63.32-130.89-47.824 7.2508-65.393 77.75-73.12 131.07z" fill="url(#b)"/> </g> <g transform="matrix(-.90978 0 0 1.3996 395.18 -49.426)" stroke-width="0"> <g transform="translate(157.15 52.385)"> <path d="m106.7 138.61 13.096-0.37418c1.2459-42.542-6.476-57.697-8.3768-59.801-0.62445-1.1692-8.0613-0.73643-10.508 2.4319 0.0241 1.4478 11.63 14.251 5.7886 57.743z" fill="#165016"/> <path d="m108 138.57 10.824-0.30924c-1.572-7.9101 0.38331-46.685-9.3041-60.358-1.2106 0.08751-6.2055 0.07113-8.2031 2.4734 0.0241 1.4478 12.525 14.701 6.6837 58.194z" fill="url(#g)"/> </g> <g transform="matrix(.44685 .15075 -.21858 .64794 242.18 71.278)"> <path d="m72.862 75.821c6.3469-4.6025 11.81-5.026 20.076-5.7436 1.4923 35.587-6.0566 69.348-9.8709 103.17-5.025-33.016-9.1957-60.064-10.205-97.423z" fill="#165016"/> <path d="m75.6 73.721c3.0591-1.9222 7.753-3.0171 15.398-3.7698 1.4923 35.587-4.1161 55.63-7.9304 89.448-5.025-33.016-6.4578-48.32-7.4673-85.678z" fill="url(#p)"/> </g> </g> <g transform="matrix(-.90037 -.43513 -.43513 .90037 216.42 37.768)"> <path d="m56.514 184.01 13.096-0.37418c-14.035-97.226 49.544-80.84 99.554-85.675-63.687-5.1641-123.94-13.071-112.65 86.049z" fill="#165016" stroke-width="0"/> <path d="m58.596 183.05 8.1864-0.10026c-7.7845-76.536 21.844-85.36 91.895-85.064-69.346-6.3736-110.25 2.6834-100.08 85.164z" fill="url(#e)" stroke-width="0"/> </g> <g transform="rotate(-17.863 106.55 -60.515)"> <path d="m56.514 184.01 13.096-0.37418c-14.035-97.226 49.544-80.84 99.554-85.675-63.687-5.1641-123.94-13.071-112.65 86.049z" fill="#165016" stroke-width="0"/> <path d="m58.596 183.05 8.1864-0.10026c-7.7845-76.536 21.844-85.36 91.895-85.064-69.346-6.3736-110.25 2.6834-100.08 85.164z" fill="url(#e)" stroke-width="0"/> </g> <g transform="matrix(1.4349 -.53076 .53076 1.4349 -204.23 -.43632)" stroke-width="0"> <path d="m158.65 181.85 13.096-0.37418c-1.9822-71.986 32.536-133.09 74.461-131.71-57.206-4.4984-78.238 67.772-87.558 132.08z" fill="#165016"/> <path d="m160.15 181.77 9.7992-0.17793c-1.6434-59.681 22.741-120.26 63.32-130.89-47.824 7.2508-65.393 77.75-73.12 131.07z" fill="url(#b)"/> </g> <g transform="matrix(1.064 0 0 1.5614 18.463 -108.12)" stroke-width="0"> <path d="m87.206 176.6 13.096-0.37418c-9.2449-44.139-21.456-125.3 44.184-97.379-21.784-30.826-57.84 10.105-57.28 97.753z" fill="#165016"/> <path d="m89.012 176.58 10.157-0.26869c-3.2975-15.749-7.6879-37.519-6.25-56.487 1.245-25.756 5.2489-39.961 23.268-46.348 2.1799-1.1479 17.59-2.0547 27.27 4.6141-11.558-14.576-22.19-6.9635-27.27-4.6141-11.695 5.4879-21.14 31.171-23.268 46.348-2.5877 16.61-4.0201 37.96-3.9071 56.756z" fill="url(#d)"/> </g> <g transform="matrix(-1.1548 -.18163 -.18163 1.1548 240.89 -30.314)" stroke-width="0"> <path d="m83.816 179.23 13.096-0.37418c-4.5834-20.451 21.928-117.7 37.792-156.41-29.773 47.136-40.654 101.83-50.888 156.78z" fill="#165016"/> <path d="m84.938 179.38 10.4-0.56174c-4.5697-24.188 21.446-114.2 34.044-144.94-22.147 39.302-29.769 73.61-44.444 145.5z" fill="url(#f)"/> </g> <g transform="matrix(-1 0 0 1 249.95 -8.2319)" stroke-width="0"> <path d="m158.65 181.85 13.096-0.37418c-1.9822-71.986 32.536-133.09 74.461-131.71-57.206-4.4984-78.238 67.772-87.558 132.08z" fill="#165016"/> <path d="m160.15 181.77 9.7992-0.17793c-1.6434-59.681 22.741-120.26 63.32-130.89-47.824 7.2508-65.393 77.75-73.12 131.07z" fill="url(#b)"/> </g> <g transform="translate(-51.636 -7.4835)" stroke-width="0"> <path d="m158.65 181.85 13.096-0.37418c-1.9822-71.986 32.536-133.09 74.461-131.71-57.206-4.4984-78.238 67.772-87.558 132.08z" fill="#165016"/> <path d="m160.15 181.77 9.7992-0.17793c-1.6434-59.681 22.741-120.26 63.32-130.89-47.824 7.2508-65.393 77.75-73.12 131.07z" fill="url(#b)"/> </g> <g transform="matrix(-1 0 0 1 184.2 -2.5926)" stroke-width="0"> <path d="m83.816 179.23 13.096-0.37418c-4.5834-20.451 21.928-117.7 37.792-156.41-29.773 47.136-40.654 101.83-50.888 156.78z" fill="#165016"/> <path d="m84.938 179.38 10.4-0.56174c-4.5697-24.188 21.446-114.2 34.044-144.94-22.147 39.302-29.769 73.61-44.444 145.5z" fill="url(#f)"/> </g> <g transform="translate(10.586 -5.5861)" stroke-width="0"> <path d="m83.816 179.23 13.096-0.37418c-4.5834-20.451 21.928-117.7 37.792-156.41-29.773 47.136-40.654 101.83-50.888 156.78z" fill="#165016"/> <path d="m84.938 179.38 10.4-0.56174c-4.5697-24.188 21.446-114.2 34.044-144.94-22.147 39.302-29.769 73.61-44.444 145.5z" fill="url(#f)"/> </g> <g transform="matrix(-1 0 0 1 149.89 -8.5419)"> <path d="m56.514 184.01 13.096-0.37418c-14.035-97.226 49.544-80.84 99.554-85.675-63.687-5.1641-123.94-13.071-112.65 86.049z" fill="#165016" stroke-width="0"/> <path d="m58.596 183.05 8.1864-0.10026c-7.7845-76.536 21.844-85.36 91.895-85.064-69.346-6.3736-110.25 2.6834-100.08 85.164z" fill="url(#e)" stroke-width="0"/> </g> <g transform="rotate(5.9445 158.16 418.86)" stroke-width="0"> <path d="m87.206 176.6 13.096-0.37418c-9.2449-44.139-21.456-125.3 44.184-97.379-21.784-30.826-57.84 10.105-57.28 97.753z" fill="#165016"/> <path d="m89.012 176.58 10.157-0.26869c-3.2975-15.749-7.6879-37.519-6.25-56.487 1.245-25.756 5.2489-39.961 23.268-46.348 2.1799-1.1479 17.59-2.0547 27.27 4.6141-11.558-14.576-22.19-6.9635-27.27-4.6141-11.695 5.4879-21.14 31.171-23.268 46.348-2.5877 16.61-4.0201 37.96-3.9071 56.756z" fill="url(#d)"/> </g> <g transform="matrix(-1.4298 0 0 1.4298 225.35 -82.267)" stroke-width="0"> <path d="m87.206 176.6 13.096-0.37418c-9.2449-44.139-21.456-125.3 44.184-97.379-21.784-30.826-57.84 10.105-57.28 97.753z" fill="#165016"/> <path d="m89.012 176.58 10.157-0.26869c-3.2975-15.749-7.6879-37.519-6.25-56.487 1.245-25.756 5.2489-39.961 23.268-46.348 2.1799-1.1479 17.59-2.0547 27.27 4.6141-11.558-14.576-22.19-6.9635-27.27-4.6141-11.695 5.4879-21.14 31.171-23.268 46.348-2.5877 16.61-4.0201 37.96-3.9071 56.756z" fill="url(#d)"/> </g> <g transform="matrix(-.81759 0 0 .81759 202.33 67.842)" stroke-width="0"> <path d="m64.414 122.15 13.096-0.37418c3.4516-117.85-47.2-42.532-23.158 26.654-39.942-108.69 22.025-115.36 10.061-26.279z" fill="#165016"/> <path d="m66.134 122.01 9.6566 0.0227c1.7252-58.906-8.0538-68.803-17.675-57.003-7.6437 8.7662-15.788 30.266-8.128 67.782-16.078-49.437-5.5867-81.518 8.128-67.782 6.5266-1.0463 12.036 27.066 8.0188 56.98z" fill="url(#h)"/> </g> <g transform="matrix(1.0469 0 0 .98995 49.691 -1.7414)" stroke-width="0"> <path d="m72.59 180.73 13.096-0.37418c12.058-124.96 22.543-121.01 54.63-49.017-39.942-108.69-55.762-39.692-67.726 49.391z" fill="#165016"/> <path d="m74.31 180.99 9.5243-0.50647c10.735-125.23 25.982-123.26 56.482-49.15-41.794-107.63-51.926-38.369-66.006 49.656z" fill="url(#i)"/> </g> <g transform="matrix(-1.1207 0 0 1.1207 177.07 -4.0766)" stroke-width="0"> <path d="m72.59 180.73 13.096-0.37418c12.058-124.96 22.543-121.01 54.63-49.017-39.942-108.69-55.762-39.692-67.726 49.391z" fill="#165016"/> <path d="m74.31 180.99 9.5243-0.50647c10.735-125.23 25.982-123.26 56.482-49.15-41.794-107.63-51.926-38.369-66.006 49.656z" fill="url(#i)"/> </g> <g transform="translate(-19.156 45.975)" stroke-width="0"> <path d="m106.7 138.61 13.096-0.37418c1.2459-42.542-8.725-59.582-10.626-61.686-0.62445-1.1692-5.8124 1.1487-8.2591 4.3171 0.0241 1.4478 11.63 14.251 5.7886 57.743z" fill="#165016"/> <path d="m108 138.57 10.824-0.30924c-1.572-7.9101-1.1711-48.305-10.859-61.979-1.2106 0.08751-4.6511 1.6917-6.6487 4.0939 0.0241 1.4478 12.525 14.701 6.6837 58.194z" fill="url(#g)"/> </g> <g transform="translate(-2.9402 79.019)" stroke-width="0"> <path d="m64 97.588h91.268c7.0567 0 12.738 6.154 12.738 13.798v37.75c0 7.6442-5.681 13.798-12.738 13.798h-91.268c-7.0567 0-12.738-6.154-12.738-13.798v-37.75c0-7.6442 5.681-13.798 12.738-13.798z" fill="url(#n)"/> <path d="m62.112 84.19h95.044c4.2676 0 7.7033 3.7217 7.7033 8.3446 0 4.6229-0.63146 5.3371-1.3272 8.2717l-107.62-0.0921c0.08449-0.0745-1.4994-3.5567-1.4994-8.1796 0-4.6229 3.4357-8.3446 7.7033-8.3446z" fill="url(#m)"/> <path d="m62.112 175.76h95.044c4.2676 0 7.7033-3.7217 7.7033-8.3446s-0.63146-5.3372-1.3272-8.2717l-107.62 0.0921c0.08449 0.0745-1.4994 3.5566-1.4994 8.1796s3.4357 8.3446 7.7033 8.3446z" fill="url(#l)"/> <path transform="matrix(.99475 0 0 .32674 .70227 142.8)" d="m66.248 99.053h86.78c3.7004 0 7.8578-0.25186 7.8578 3.0597 0 3.3116-5.6307 2.9156-9.3311 2.9156h-82.411c-3.7004 0-10.587 0.29637-10.587-3.0152 0-3.3116 3.9906-2.9601 7.691-2.9601z" fill="url(#k)" filter="url(#s)" style="mix-blend-mode:normal"/> </g> <g transform="rotate(11.065 -147.77 85.927)" stroke-width="0"> <path d="m89.044 160.26c-21.09-57.389-14.607-81.473-6.4108-86.142 2.6158 0.13655 6.903 0.49914 10.008 2.5304-11.892 27.725-12.197 54.464-3.5973 83.611z" fill="#165016"/> <path d="m86.222 150.84c-15.295-44.933-11.614-72.071-2.9293-76.68 0.74115-0.20963 6.579 0.6227 8.627 2.0607-10.423 24.301-13.235 49.071-5.6978 74.619z" fill="url(#o)"/> </g> <g transform="matrix(.75487 0 0 1.0804 48.179 54.784)" stroke-width="0"> <path d="m72.59 71.842c6.1093-4.5013 12.855-5.8206 20.954-0.37418 1.4923 35.587-6.6626 67.958-10.477 101.78-5.025-33.016-9.4674-64.043-10.477-101.4z" fill="#165016"/> <path d="m75.333 70.072c7.5178-4.4357 14.535-0.6648 15.665-0.12065 1.4923 35.587-4.1161 55.63-7.9304 89.448-5.025-33.016-6.7251-51.969-7.7346-89.327z" fill="url(#q)"/> </g> </g> </g> </svg>