<?xml version='1.0' encoding='utf-8'?>
<svg xmlns="http://www.w3.org/2000/svg" id="Warstwa_1" data-name="Warstwa 1" viewBox="0 0 595.28 841.89"> <defs> <style> .cls-1 { fill: #c7c6c6; } .cls-2 { fill: #fff; } .cls-3 { fill: url(#Gradient_bez_nazwy_4); } .cls-4 { fill: url(#Gradient_bez_nazwy_3); } .cls-5 { fill: url(#Gradient_bez_nazwy_2); } </style> <radialGradient id="Gradient_bez_nazwy_4" data-name="Gradient bez nazwy 4" cx="215.55" cy="507.3" fx="215.55" fy="507.3" r="3.22" gradientTransform="translate(-1275.97 4181.26) scale(7.66 -7.23)" gradientUnits="userSpaceOnUse"> <stop offset="0" stop-color="#008e39"/> <stop offset=".4" stop-color="#088036"/> <stop offset="1" stop-color="#056734"/> </radialGradient> <radialGradient id="Gradient_bez_nazwy_2" data-name="Gradient bez nazwy 2" cx="206.71" cy="524.96" fx="206.71" fy="524.96" r="19.37" gradientTransform="translate(-1275.97 4181.26) scale(7.66 -7.23)" gradientUnits="userSpaceOnUse"> <stop offset="0" stop-color="#008e39"/> <stop offset=".31" stop-color="#088938"/> <stop offset=".66" stop-color="#067c35"/> <stop offset="1" stop-color="#056734"/> </radialGradient> <radialGradient id="Gradient_bez_nazwy_3" data-name="Gradient bez nazwy 3" cx="202" cy="507.3" fx="202" fy="507.3" r="3.22" gradientTransform="translate(-1275.97 4181.26) scale(7.66 -7.23)" gradientUnits="userSpaceOnUse"> <stop offset="0" stop-color="#008e39"/> <stop offset=".33" stop-color="#098637"/> <stop offset=".84" stop-color="#006f35"/> <stop offset="1" stop-color="#056734"/> </radialGradient> </defs> <g id="Warstwa_2" data-name="Warstwa 2"> <g id="Warstwa_1-2" data-name="Warstwa 1-2"> <ellipse class="cls-3" cx="375.56" cy="512.77" rx="24.64" ry="23.33"/> <path class="cls-5" d="M430.61,312.55c-4.75,.11-8.8,3.34-9.79,7.8l-19.81,92.65c-2.64,12.11-13.92,20.68-26.82,20.39l-100.21-1.64c-11.76-.18-22.02-7.67-25.35-18.47l-36.37-121.75c-3.36-11.01-13.91-18.56-25.88-18.53H111.59c-6.8-.06-12.39,5.12-12.56,11.64v3.45c-.13,6.55,5.31,11.96,12.14,12.09,.1,0,.2,0,.3,0h42.5c12.04-.02,22.62,7.65,25.88,18.76l38.9,135.14c3.22,11.1,13.8,18.76,25.82,18.7h162.4c12.67,.05,23.64-8.41,26.29-20.28l27.94-129.6h0c.76-5.25-3.07-10.1-8.55-10.83-.66-.09-1.33-.11-2-.07l-20.04,.56Z"/> <ellipse class="cls-4" cx="271.87" cy="512.77" rx="24.64" ry="23.33"/> <ellipse class="cls-2" cx="375.56" cy="512.77" rx="9.55" ry="9.1"/> <ellipse class="cls-2" cx="271.87" cy="512.77" rx="9.55" ry="9.1"/> <ellipse class="cls-1" cx="306.59" cy="546.44" rx="169.41" ry="2.99"/> </g> </g> </svg>